<svg xmlns="http://www.w3.org/2000/svg" xmlns:xlink="http://www.w3.org/1999/xlink" width="1080" zoomAndPan="magnify" viewBox="0 0 810 809.999993" height="1080" preserveAspectRatio="xMidYMid meet" version="1.0"><defs><g/></defs><g fill="#fefefe" fill-opacity="1"><g transform="translate(99.06224, 429.474958)"><g><path d="M 4.234375 -11.195312 C 4.234375 -14.046875 4.847656 -16.566406 6.070312 -18.757812 C 7.296875 -20.945312 9.011719 -22.648438 11.214844 -23.855469 C 13.417969 -25.066406 15.917969 -25.671875 18.714844 -25.671875 L 20.789062 -25.671875 C 21.335938 -28.957031 22.601562 -31.9375 24.589844 -34.617188 C 26.578125 -37.296875 29.058594 -39.402344 32.023438 -40.929688 C 34.992188 -42.457031 38.207031 -43.21875 41.664062 -43.21875 C 45.582031 -43.21875 49.199219 -42.246094 52.511719 -40.300781 C 55.824219 -38.355469 58.445312 -35.726562 60.375 -32.414062 C 62.308594 -29.101562 63.273438 -25.484375 63.273438 -21.566406 C 63.273438 -17.648438 62.308594 -14.03125 60.375 -10.71875 C 58.445312 -7.40625 55.824219 -4.789062 52.511719 -2.875 C 49.199219 -0.957031 45.582031 0 41.664062 0 C 38.234375 0 35.023438 -0.757812 32.023438 -2.269531 C 29.027344 -3.78125 26.527344 -5.863281 24.527344 -8.515625 C 22.523438 -11.164062 21.234375 -14.132812 20.660156 -17.417969 L 18.714844 -17.417969 C 16.726562 -17.417969 15.191406 -16.875 14.109375 -15.796875 C 13.03125 -14.714844 12.488281 -13.183594 12.488281 -11.195312 L 12.488281 19.015625 L 4.234375 19.015625 Z M 41.664062 -8.253906 C 44.082031 -8.253906 46.304688 -8.859375 48.324219 -10.070312 C 50.347656 -11.28125 51.960938 -12.898438 53.164062 -14.929688 C 54.371094 -16.960938 54.972656 -19.1875 54.972656 -21.609375 C 54.972656 -24.03125 54.371094 -26.253906 53.164062 -28.285156 C 51.957031 -30.316406 50.339844 -31.9375 48.3125 -33.148438 C 46.289062 -34.359375 44.070312 -34.964844 41.65625 -34.964844 C 39.238281 -34.964844 37.015625 -34.359375 34.984375 -33.148438 C 32.957031 -31.9375 31.335938 -30.316406 30.125 -28.285156 C 28.914062 -26.257812 28.308594 -24.03125 28.308594 -21.609375 C 28.308594 -19.1875 28.914062 -16.964844 30.125 -14.933594 C 31.332031 -12.902344 32.953125 -11.28125 34.984375 -10.070312 C 37.015625 -8.859375 39.242188 -8.253906 41.664062 -8.253906 Z M 41.664062 -8.253906 "/></g></g></g><g fill="#fefefe" fill-opacity="1"><g transform="translate(177.547545, 430.771528)"><g><path d="M 2.289062 -54.238281 L 12.964844 -56.574219 C 12.332031 -57.035156 11.804688 -57.632812 11.386719 -58.367188 C 10.96875 -59.101562 10.761719 -59.902344 10.761719 -60.765625 C 10.761719 -62.40625 11.335938 -63.785156 12.488281 -64.894531 C 13.644531 -66.003906 15.070312 -66.558594 16.773438 -66.558594 C 18.476562 -66.558594 19.925781 -65.960938 21.117188 -64.765625 C 22.308594 -63.574219 22.90625 -62.125 22.90625 -60.421875 C 22.90625 -58.921875 22.460938 -57.625 21.566406 -56.53125 C 20.671875 -55.433594 19.460938 -54.714844 17.9375 -54.371094 L 2.289062 -50.824219 Z M 16.769531 -57.871094 C 17.460938 -57.871094 18.050781 -58.125 18.539062 -58.632812 C 19.03125 -59.144531 19.277344 -59.738281 19.277344 -60.417969 C 19.277344 -61.097656 19.03125 -61.695312 18.539062 -62.203125 C 18.050781 -62.714844 17.460938 -62.96875 16.769531 -62.96875 C 16.078125 -62.96875 15.480469 -62.714844 14.976562 -62.203125 C 14.472656 -61.695312 14.21875 -61.097656 14.21875 -60.417969 C 14.21875 -59.738281 14.472656 -59.144531 14.984375 -58.632812 C 15.492188 -58.125 16.089844 -57.871094 16.769531 -57.871094 Z M 16.769531 -57.871094 "/></g></g></g><g fill="#fefefe" fill-opacity="1"><g transform="translate(166.569983, 429.474958)"><g><path d="M 3.5 -8.253906 L 32.457031 -8.253906 L 32.457031 -20.011719 C 32.457031 -22.976562 31.902344 -25.59375 30.792969 -27.855469 C 29.683594 -30.117188 28.121094 -31.867188 26.105469 -33.105469 C 24.085938 -34.34375 21.769531 -34.964844 19.144531 -34.964844 C 17.648438 -34.964844 16.25 -34.769531 14.953125 -34.378906 C 13.65625 -33.992188 12.390625 -33.421875 11.152344 -32.671875 C 11.09375 -32.671875 11.058594 -32.660156 11.042969 -32.628906 C 11.027344 -32.601562 10.992188 -32.574219 10.933594 -32.542969 L 7.476562 -39.804688 C 10.964844 -42.082031 14.851562 -43.21875 19.144531 -43.21875 C 23.238281 -43.21875 26.933594 -42.226562 30.230469 -40.238281 C 33.53125 -38.25 36.109375 -35.488281 37.96875 -31.960938 C 39.824219 -28.429688 40.753906 -24.449219 40.753906 -20.011719 L 40.753906 -8.253906 L 48.835938 -8.253906 L 48.835938 0 L 3.5 0 Z M 3.5 -8.253906 "/></g></g></g><g fill="#fefefe" fill-opacity="1"><g transform="translate(214.542835, 429.474958)"><g><path d="M -0.863281 -8.253906 L 13.742188 -8.253906 C 11.4375 -9.867188 9.601562 -11.957031 8.234375 -14.523438 C 6.863281 -17.085938 6.179688 -19.878906 6.179688 -22.90625 C 6.179688 -26.578125 7.09375 -29.96875 8.925781 -33.070312 C 10.753906 -36.175781 13.273438 -38.644531 16.488281 -40.472656 C 19.699219 -42.304688 23.25 -43.21875 27.140625 -43.21875 C 31.175781 -43.21875 34.839844 -42.238281 38.140625 -40.28125 C 41.441406 -38.320312 44.03125 -35.648438 45.917969 -32.261719 C 47.808594 -28.878906 48.75 -25.109375 48.75 -20.960938 L 48.75 -8.253906 L 57.179688 -8.253906 L 57.179688 0 L -0.863281 0 Z M 40.453125 -8.253906 L 40.453125 -21.609375 C 40.453125 -24.03125 39.859375 -26.265625 38.675781 -28.316406 C 37.492188 -30.367188 35.878906 -31.988281 33.835938 -33.179688 C 31.792969 -34.367188 29.5625 -34.964844 27.144531 -34.964844 C 24.726562 -34.964844 22.496094 -34.367188 20.445312 -33.171875 C 18.398438 -31.976562 16.777344 -30.351562 15.582031 -28.304688 C 14.382812 -26.253906 13.785156 -24.023438 13.785156 -21.605469 C 13.785156 -19.1875 14.382812 -16.957031 15.582031 -14.910156 C 16.777344 -12.863281 18.398438 -11.242188 20.441406 -10.046875 C 22.488281 -8.851562 24.71875 -8.253906 27.132812 -8.253906 Z M 19.230469 -48.664062 C 17.886719 -48.664062 16.722656 -49.15625 15.738281 -50.140625 C 14.753906 -51.125 14.261719 -52.289062 14.261719 -53.632812 C 14.261719 -55.046875 14.753906 -56.242188 15.738281 -57.222656 C 16.722656 -58.203125 17.886719 -58.691406 19.230469 -58.691406 C 20.617188 -58.691406 21.796875 -58.195312 22.777344 -57.199219 C 23.757812 -56.207031 24.246094 -55.015625 24.246094 -53.632812 C 24.246094 -52.289062 23.757812 -51.125 22.777344 -50.140625 C 21.796875 -49.15625 20.617188 -48.664062 19.230469 -48.664062 Z M 34.792969 -48.664062 C 33.445312 -48.664062 32.28125 -49.15625 31.296875 -50.140625 C 30.3125 -51.125 29.820312 -52.289062 29.820312 -53.632812 C 29.820312 -55.046875 30.3125 -56.242188 31.296875 -57.222656 C 32.28125 -58.203125 33.445312 -58.691406 34.792969 -58.691406 C 36.175781 -58.691406 37.355469 -58.195312 38.335938 -57.199219 C 39.316406 -56.207031 39.804688 -55.015625 39.804688 -53.632812 C 39.804688 -52.289062 39.316406 -51.125 38.335938 -50.140625 C 37.355469 -49.15625 36.175781 -48.664062 34.792969 -48.664062 Z M 34.792969 -48.664062 "/></g></g></g><g fill="#fefefe" fill-opacity="1"><g transform="translate(271.721292, 422.170985)"><g><path d="M 2.289062 -59.125 L 22.601562 -62.753906 L 22.601562 -59.296875 L 2.289062 -55.664062 Z M 2.289062 -59.125 "/></g></g></g><g fill="#fefefe" fill-opacity="1"><g transform="translate(270.900133, 429.474958)"><g><path d="M -0.863281 -8.253906 L 4.234375 -8.253906 C 6.539062 -8.253906 8.289062 -9.03125 9.488281 -10.589844 C 10.683594 -12.144531 11.28125 -14.277344 11.28125 -16.984375 L 11.28125 -43.21875 L 19.578125 -43.21875 L 19.578125 -16.984375 C 19.578125 -13.613281 18.945312 -10.644531 17.675781 -8.082031 C 16.410156 -5.519531 14.621094 -3.53125 12.316406 -2.117188 C 10.011719 -0.707031 7.320312 0 4.234375 0 L -0.863281 0 Z M 8.039062 -47.972656 C 6.691406 -47.972656 5.527344 -48.464844 4.542969 -49.449219 C 3.558594 -50.433594 3.070312 -51.597656 3.070312 -52.941406 C 3.070312 -54.324219 3.558594 -55.507812 4.542969 -56.488281 C 5.527344 -57.464844 6.691406 -57.957031 8.039062 -57.957031 C 9.449219 -57.957031 10.644531 -57.464844 11.625 -56.488281 C 12.605469 -55.507812 13.09375 -54.324219 13.09375 -52.941406 C 13.09375 -51.597656 12.605469 -50.433594 11.625 -49.449219 C 10.644531 -48.464844 9.449219 -47.972656 8.039062 -47.972656 Z M 22.648438 -47.972656 C 21.300781 -47.972656 20.136719 -48.464844 19.152344 -49.449219 C 18.167969 -50.433594 17.675781 -51.597656 17.675781 -52.941406 C 17.675781 -54.359375 18.167969 -55.550781 19.152344 -56.511719 C 20.136719 -57.476562 21.300781 -57.957031 22.648438 -57.957031 C 24.066406 -57.957031 25.253906 -57.476562 26.214844 -56.511719 C 27.179688 -55.550781 27.660156 -54.359375 27.660156 -52.941406 C 27.660156 -51.597656 27.179688 -50.433594 26.214844 -49.449219 C 25.253906 -48.464844 24.066406 -47.972656 22.648438 -47.972656 Z M 22.648438 -47.972656 "/></g></g></g><path stroke-linecap="round" transform="matrix(0, 0.75, -0.75, 0, 319.634109, 318.369146)" fill="none" stroke-linejoin="miter" d="M 4.502598 4.501729 L 226.523442 4.501729 " stroke="#fefefe" stroke-width="9" stroke-opacity="1" stroke-miterlimit="4"/><g fill="#fefefe" fill-opacity="1"><g transform="translate(338.050446, 394.599991)"><g><path d="M 18.84375 0 L 18.84375 -41.21875 L 2.25 -41.21875 L 2.25 -52.359375 L 47.34375 -52.359375 L 47.34375 -41.21875 L 30.734375 -41.21875 L 30.734375 0 Z M 18.84375 0 "/></g></g></g><g fill="#fefefe" fill-opacity="1"><g transform="translate(382.025602, 394.599991)"><g><path d="M 18.78125 0.75 C 14.132812 0.75 10.460938 -0.332031 7.765625 -2.5 C 5.078125 -4.675781 3.734375 -7.65625 3.734375 -11.4375 C 3.734375 -15.082031 4.941406 -17.988281 7.359375 -20.15625 C 9.785156 -22.320312 13.039062 -23.40625 17.125 -23.40625 L 31.34375 -23.40625 L 31.34375 -25.203125 C 31.34375 -27.148438 30.644531 -28.707031 29.25 -29.875 C 27.851562 -31.050781 26.03125 -31.640625 23.78125 -31.640625 C 21.9375 -31.640625 20.363281 -31.210938 19.0625 -30.359375 C 17.769531 -29.515625 16.953125 -28.394531 16.609375 -27 L 5.6875 -27 C 6.382812 -31.289062 8.316406 -34.582031 11.484375 -36.875 C 14.648438 -39.164062 18.722656 -40.3125 23.703125 -40.3125 C 29.585938 -40.3125 34.1875 -38.828125 37.5 -35.859375 C 40.820312 -32.898438 42.484375 -28.828125 42.484375 -23.640625 L 42.484375 0 L 34.03125 0 L 32.765625 -4.5625 C 29.316406 -1.019531 24.65625 0.75 18.78125 0.75 Z M 14.953125 -11.890625 C 14.953125 -10.546875 15.535156 -9.460938 16.703125 -8.640625 C 17.878906 -7.816406 19.441406 -7.40625 21.390625 -7.40625 C 24.234375 -7.40625 26.585938 -8.226562 28.453125 -9.875 C 30.328125 -11.519531 31.316406 -13.664062 31.421875 -16.3125 L 20.640625 -16.3125 C 18.941406 -16.3125 17.566406 -15.910156 16.515625 -15.109375 C 15.472656 -14.304688 14.953125 -13.234375 14.953125 -11.890625 Z M 14.953125 -11.890625 "/></g></g></g><g fill="#fefefe" fill-opacity="1"><g transform="translate(423.831874, 394.599991)"><g><path d="M 22.890625 1.046875 C 18.992188 1.046875 15.550781 0.160156 12.5625 -1.609375 C 9.570312 -3.378906 7.21875 -5.820312 5.5 -8.9375 C 3.78125 -12.050781 2.921875 -15.628906 2.921875 -19.671875 C 2.921875 -23.710938 3.78125 -27.273438 5.5 -30.359375 C 7.21875 -33.453125 9.570312 -35.882812 12.5625 -37.65625 C 15.550781 -39.425781 18.992188 -40.3125 22.890625 -40.3125 C 25.734375 -40.3125 28.363281 -39.828125 30.78125 -38.859375 C 33.195312 -37.890625 35.28125 -36.53125 37.03125 -34.78125 L 38.296875 -39.265625 L 46.75 -39.265625 L 46.75 14.953125 L 35.375 14.953125 L 35.375 -3.0625 C 33.675781 -1.769531 31.78125 -0.757812 29.6875 -0.03125 C 27.59375 0.6875 25.328125 1.046875 22.890625 1.046875 Z M 14.140625 -19.671875 C 14.140625 -16.484375 15.144531 -13.863281 17.15625 -11.8125 C 19.175781 -9.769531 21.785156 -8.75 24.984375 -8.75 C 28.171875 -8.75 30.757812 -9.769531 32.75 -11.8125 C 34.75 -13.863281 35.75 -16.484375 35.75 -19.671875 C 35.75 -22.859375 34.75 -25.472656 32.75 -27.515625 C 30.757812 -29.566406 28.171875 -30.59375 24.984375 -30.59375 C 21.785156 -30.59375 19.175781 -29.566406 17.15625 -27.515625 C 15.144531 -25.472656 14.140625 -22.859375 14.140625 -19.671875 Z M 14.140625 -19.671875 "/></g></g></g><g fill="#fefefe" fill-opacity="1"><g transform="translate(470.649011, 394.599991)"><g><path d="M 18.78125 0.75 C 14.132812 0.75 10.460938 -0.332031 7.765625 -2.5 C 5.078125 -4.675781 3.734375 -7.65625 3.734375 -11.4375 C 3.734375 -15.082031 4.941406 -17.988281 7.359375 -20.15625 C 9.785156 -22.320312 13.039062 -23.40625 17.125 -23.40625 L 31.34375 -23.40625 L 31.34375 -25.203125 C 31.34375 -27.148438 30.644531 -28.707031 29.25 -29.875 C 27.851562 -31.050781 26.03125 -31.640625 23.78125 -31.640625 C 21.9375 -31.640625 20.363281 -31.210938 19.0625 -30.359375 C 17.769531 -29.515625 16.953125 -28.394531 16.609375 -27 L 5.6875 -27 C 6.382812 -31.289062 8.316406 -34.582031 11.484375 -36.875 C 14.648438 -39.164062 18.722656 -40.3125 23.703125 -40.3125 C 29.585938 -40.3125 34.1875 -38.828125 37.5 -35.859375 C 40.820312 -32.898438 42.484375 -28.828125 42.484375 -23.640625 L 42.484375 0 L 34.03125 0 L 32.765625 -4.5625 C 29.316406 -1.019531 24.65625 0.75 18.78125 0.75 Z M 14.953125 -11.890625 C 14.953125 -10.546875 15.535156 -9.460938 16.703125 -8.640625 C 17.878906 -7.816406 19.441406 -7.40625 21.390625 -7.40625 C 24.234375 -7.40625 26.585938 -8.226562 28.453125 -9.875 C 30.328125 -11.519531 31.316406 -13.664062 31.421875 -16.3125 L 20.640625 -16.3125 C 18.941406 -16.3125 17.566406 -15.910156 16.515625 -15.109375 C 15.472656 -14.304688 14.953125 -13.234375 14.953125 -11.890625 Z M 14.953125 -11.890625 "/></g></g></g><g fill="#fefefe" fill-opacity="1"><g transform="translate(512.455283, 394.599991)"><g><path d="M 22.890625 1.046875 C 18.992188 1.046875 15.550781 0.160156 12.5625 -1.609375 C 9.570312 -3.378906 7.21875 -5.820312 5.5 -8.9375 C 3.78125 -12.050781 2.921875 -15.628906 2.921875 -19.671875 C 2.921875 -23.710938 3.78125 -27.273438 5.5 -30.359375 C 7.21875 -33.453125 9.570312 -35.882812 12.5625 -37.65625 C 15.550781 -39.425781 18.992188 -40.3125 22.890625 -40.3125 C 25.328125 -40.3125 27.59375 -39.945312 29.6875 -39.21875 C 31.78125 -38.5 33.675781 -37.492188 35.375 -36.203125 L 35.375 -55.34375 L 46.75 -55.34375 L 46.75 0 L 38.296875 0 L 36.953125 -4.484375 C 35.203125 -2.742188 33.128906 -1.382812 30.734375 -0.40625 C 28.347656 0.5625 25.734375 1.046875 22.890625 1.046875 Z M 14.140625 -19.671875 C 14.140625 -16.484375 15.144531 -13.863281 17.15625 -11.8125 C 19.175781 -9.769531 21.785156 -8.75 24.984375 -8.75 C 28.171875 -8.75 30.757812 -9.769531 32.75 -11.8125 C 34.75 -13.863281 35.75 -16.484375 35.75 -19.671875 C 35.75 -22.859375 34.75 -25.472656 32.75 -27.515625 C 30.757812 -29.566406 28.171875 -30.59375 24.984375 -30.59375 C 21.785156 -30.59375 19.175781 -29.566406 17.15625 -27.515625 C 15.144531 -25.472656 14.140625 -22.859375 14.140625 -19.671875 Z M 14.140625 -19.671875 "/></g></g></g><g fill="#fefefe" fill-opacity="1"><g transform="translate(559.27242, 394.599991)"><g><path d="M 22.890625 1.046875 C 18.992188 1.046875 15.550781 0.160156 12.5625 -1.609375 C 9.570312 -3.378906 7.21875 -5.820312 5.5 -8.9375 C 3.78125 -12.050781 2.921875 -15.628906 2.921875 -19.671875 C 2.921875 -23.710938 3.78125 -27.273438 5.5 -30.359375 C 7.21875 -33.453125 9.570312 -35.882812 12.5625 -37.65625 C 15.550781 -39.425781 18.992188 -40.3125 22.890625 -40.3125 C 25.328125 -40.3125 27.59375 -39.945312 29.6875 -39.21875 C 31.78125 -38.5 33.675781 -37.492188 35.375 -36.203125 L 35.375 -55.34375 L 46.75 -55.34375 L 46.75 0 L 38.296875 0 L 36.953125 -4.484375 C 35.203125 -2.742188 33.128906 -1.382812 30.734375 -0.40625 C 28.347656 0.5625 25.734375 1.046875 22.890625 1.046875 Z M 14.140625 -19.671875 C 14.140625 -16.484375 15.144531 -13.863281 17.15625 -11.8125 C 19.175781 -9.769531 21.785156 -8.75 24.984375 -8.75 C 28.171875 -8.75 30.757812 -9.769531 32.75 -11.8125 C 34.75 -13.863281 35.75 -16.484375 35.75 -19.671875 C 35.75 -22.859375 34.75 -25.472656 32.75 -27.515625 C 30.757812 -29.566406 28.171875 -30.59375 24.984375 -30.59375 C 21.785156 -30.59375 19.175781 -29.566406 17.15625 -27.515625 C 15.144531 -25.472656 14.140625 -22.859375 14.140625 -19.671875 Z M 14.140625 -19.671875 "/></g></g></g><g fill="#fefefe" fill-opacity="1"><g transform="translate(606.089556, 394.599991)"><g><path d="M 21.3125 1.046875 C 16.226562 1.046875 12.226562 -0.5625 9.3125 -3.78125 C 6.394531 -7 4.9375 -11.320312 4.9375 -16.75 L 4.9375 -39.265625 L 16.3125 -39.265625 L 16.3125 -17.875 C 16.3125 -14.976562 16.992188 -12.734375 18.359375 -11.140625 C 19.734375 -9.546875 21.617188 -8.75 24.015625 -8.75 C 26.609375 -8.75 28.675781 -9.644531 30.21875 -11.4375 C 31.757812 -13.238281 32.53125 -15.6875 32.53125 -18.78125 L 32.53125 -39.265625 L 43.90625 -39.265625 L 43.90625 0 L 35.453125 0 L 34.25 -4.40625 C 32.707031 -2.5625 30.8125 -1.191406 28.5625 -0.296875 C 26.320312 0.597656 23.90625 1.046875 21.3125 1.046875 Z M 21.3125 1.046875 "/></g></g></g><g fill="#fefefe" fill-opacity="1"><g transform="translate(650.064713, 394.599991)"><g><path d="M 5.6875 0 L 5.6875 -39.265625 L 14.140625 -39.265625 L 15.265625 -35.234375 C 16.703125 -36.921875 18.457031 -38.1875 20.53125 -39.03125 C 22.601562 -39.882812 24.882812 -40.3125 27.375 -40.3125 C 33.15625 -40.3125 37.46875 -38.171875 40.3125 -33.890625 C 41.90625 -35.929688 43.910156 -37.507812 46.328125 -38.625 C 48.753906 -39.75 51.460938 -40.3125 54.453125 -40.3125 C 59.484375 -40.3125 63.484375 -38.753906 66.453125 -35.640625 C 69.421875 -32.523438 70.90625 -28.273438 70.90625 -22.890625 L 70.90625 0 L 59.53125 0 L 59.53125 -21.546875 C 59.53125 -24.335938 58.84375 -26.539062 57.46875 -28.15625 C 56.101562 -29.78125 54.25 -30.59375 51.90625 -30.59375 C 49.46875 -30.59375 47.523438 -29.742188 46.078125 -28.046875 C 44.628906 -26.347656 43.90625 -24.082031 43.90625 -21.25 L 43.90625 0 L 32.6875 0 L 32.6875 -21.546875 C 32.6875 -24.335938 32 -26.539062 30.625 -28.15625 C 29.257812 -29.78125 27.40625 -30.59375 25.0625 -30.59375 C 22.613281 -30.59375 20.664062 -29.742188 19.21875 -28.046875 C 17.769531 -26.347656 17.046875 -24.082031 17.046875 -21.25 L 17.046875 0 Z M 5.6875 0 "/></g></g></g><g fill="#fefefe" fill-opacity="1"><g transform="translate(338.050446, 468.849988)"><g><path d="M 18.84375 0 L 18.84375 -41.21875 L 2.25 -41.21875 L 2.25 -52.359375 L 47.34375 -52.359375 L 47.34375 -41.21875 L 30.734375 -41.21875 L 30.734375 0 Z M 18.84375 0 "/></g></g></g><g fill="#fefefe" fill-opacity="1"><g transform="translate(382.025602, 468.849988)"><g><path d="M 24.234375 1.046875 C 20.046875 1.046875 16.34375 0.175781 13.125 -1.5625 C 9.90625 -3.3125 7.398438 -5.742188 5.609375 -8.859375 C 3.816406 -11.972656 2.921875 -15.578125 2.921875 -19.671875 C 2.921875 -23.765625 3.828125 -27.351562 5.640625 -30.4375 C 7.460938 -33.53125 9.984375 -35.945312 13.203125 -37.6875 C 16.421875 -39.4375 20.148438 -40.3125 24.390625 -40.3125 C 28.867188 -40.3125 32.738281 -39.3125 36 -37.3125 C 39.269531 -35.320312 41.765625 -32.53125 43.484375 -28.9375 C 45.210938 -25.351562 45.953125 -21.164062 45.703125 -16.375 L 14.21875 -16.375 C 14.757812 -13.6875 15.953125 -11.628906 17.796875 -10.203125 C 19.640625 -8.785156 21.859375 -8.078125 24.453125 -8.078125 C 26.347656 -8.078125 28.082031 -8.4375 29.65625 -9.15625 C 31.226562 -9.882812 32.488281 -10.894531 33.4375 -12.1875 L 44.953125 -12.1875 C 43.253906 -8.050781 40.582031 -4.8125 36.9375 -2.46875 C 33.300781 -0.125 29.066406 1.046875 24.234375 1.046875 Z M 14.28125 -23.5625 L 34.703125 -23.5625 C 34.054688 -25.957031 32.847656 -27.835938 31.078125 -29.203125 C 29.304688 -30.578125 27.097656 -31.265625 24.453125 -31.265625 C 21.960938 -31.265625 19.804688 -30.578125 17.984375 -29.203125 C 16.171875 -27.835938 14.9375 -25.957031 14.28125 -23.5625 Z M 14.28125 -23.5625 "/></g></g></g><g fill="#fefefe" fill-opacity="1"><g transform="translate(424.953716, 468.849988)"><g><path d="M 24.390625 1.046875 C 20.191406 1.046875 16.472656 0.160156 13.234375 -1.609375 C 9.992188 -3.378906 7.460938 -5.820312 5.640625 -8.9375 C 3.828125 -12.050781 2.921875 -15.628906 2.921875 -19.671875 C 2.921875 -23.710938 3.828125 -27.273438 5.640625 -30.359375 C 7.460938 -33.453125 9.992188 -35.882812 13.234375 -37.65625 C 16.472656 -39.425781 20.191406 -40.3125 24.390625 -40.3125 C 28.023438 -40.3125 31.328125 -39.648438 34.296875 -38.328125 C 37.265625 -37.003906 39.71875 -35.132812 41.65625 -32.71875 C 43.601562 -30.300781 44.875 -27.472656 45.46875 -24.234375 L 34.5625 -24.234375 C 33.613281 -26.222656 32.265625 -27.78125 30.515625 -28.90625 C 28.773438 -30.03125 26.78125 -30.59375 24.53125 -30.59375 C 21.488281 -30.59375 18.992188 -29.582031 17.046875 -27.5625 C 15.109375 -25.539062 14.140625 -22.910156 14.140625 -19.671875 C 14.140625 -16.484375 15.109375 -13.863281 17.046875 -11.8125 C 18.992188 -9.769531 21.488281 -8.75 24.53125 -8.75 C 26.925781 -8.75 29.03125 -9.382812 30.84375 -10.65625 C 32.664062 -11.925781 33.976562 -13.632812 34.78125 -15.78125 L 45.84375 -15.78125 C 45.144531 -12.34375 43.8125 -9.363281 41.84375 -6.84375 C 39.875 -4.320312 37.394531 -2.375 34.40625 -1 C 31.414062 0.363281 28.078125 1.046875 24.390625 1.046875 Z M 24.390625 1.046875 "/></g></g></g><g fill="#fefefe" fill-opacity="1"><g transform="translate(467.956617, 468.849988)"><g><path d="M 5.6875 0 L 5.6875 -55.34375 L 17.046875 -55.34375 L 17.046875 -36.28125 C 18.546875 -37.625 20.289062 -38.628906 22.28125 -39.296875 C 24.28125 -39.972656 26.378906 -40.3125 28.578125 -40.3125 C 33.660156 -40.3125 37.644531 -38.738281 40.53125 -35.59375 C 43.425781 -32.457031 44.875 -28.144531 44.875 -22.65625 L 44.875 0 L 33.515625 0 L 33.515625 -21.546875 C 33.515625 -24.429688 32.828125 -26.660156 31.453125 -28.234375 C 30.078125 -29.804688 28.171875 -30.59375 25.734375 -30.59375 C 23.140625 -30.59375 21.039062 -29.707031 19.4375 -27.9375 C 17.84375 -26.164062 17.046875 -23.734375 17.046875 -20.640625 L 17.046875 0 Z M 5.6875 0 "/></g></g></g></svg>