<svg xmlns="http://www.w3.org/2000/svg" xmlns:xlink="http://www.w3.org/1999/xlink" width="1584" zoomAndPan="magnify" viewBox="0 0 1188 296.999993" height="396" preserveAspectRatio="xMidYMid meet" version="1.0"><defs><g/><clipPath id="c71cc181e5"><rect x="0" width="444" y="0" height="41"/></clipPath></defs><g transform="matrix(1, 0, 0, 1, 370, 114)"><g clip-path="url(#c71cc181e5)"><g fill="#ffffff" fill-opacity="1"><g transform="translate(4.405087, 28.061058)"><g><path d="M -2.296875 5.796875 C -2.515625 5.691406 -2.617188 5.53125 -2.609375 5.3125 C -2.597656 5.09375 -2.34375 5.023438 -1.84375 5.109375 C -1.550781 5.160156 -1.257812 5.195312 -0.96875 5.21875 C -0.675781 5.238281 -0.382812 5.25 -0.09375 5.25 C 0.863281 5.25 1.789062 5.078125 2.6875 4.734375 C 3.582031 4.398438 4.316406 3.816406 4.890625 2.984375 C 5.472656 2.148438 5.753906 0.976562 5.734375 -0.53125 L 5.671875 -11.578125 C 5.671875 -12.210938 5.847656 -12.707031 6.203125 -13.0625 C 6.566406 -13.425781 6.96875 -13.679688 7.40625 -13.828125 C 7.84375 -13.984375 8.179688 -14.0625 8.421875 -14.0625 C 8.640625 -14.0625 8.75 -13.972656 8.75 -13.796875 L 8.78125 0.484375 C 8.78125 1.691406 8.578125 2.722656 8.171875 3.578125 C 7.773438 4.429688 7.25 5.113281 6.59375 5.625 C 5.9375 6.132812 5.226562 6.507812 4.46875 6.75 C 3.71875 6.988281 2.984375 7.109375 2.265625 7.109375 C 1.390625 7.109375 0.554688 6.960938 -0.234375 6.671875 C -1.035156 6.378906 -1.722656 6.085938 -2.296875 5.796875 Z M -2.296875 5.796875 "/></g></g></g><g fill="#ffffff" fill-opacity="1"><g transform="translate(15.158711, 28.061058)"><g><path d="M 1.640625 -7.015625 C 1.640625 -8.265625 1.929688 -9.421875 2.515625 -10.484375 C 3.109375 -11.554688 3.945312 -12.425781 5.03125 -13.09375 C 6.113281 -13.757812 7.398438 -14.09375 8.890625 -14.09375 C 10.171875 -14.09375 11.332031 -13.769531 12.375 -13.125 C 13.414062 -12.476562 14.238281 -11.5625 14.84375 -10.375 C 15.457031 -9.1875 15.765625 -7.78125 15.765625 -6.15625 L 15.765625 -2.78125 L 17.9375 -2.78125 L 17.9375 0 L 15.765625 0 L 15.765625 0.453125 C 15.765625 1.660156 15.550781 2.6875 15.125 3.53125 C 14.695312 4.382812 14.140625 5.066406 13.453125 5.578125 C 12.765625 6.097656 12.023438 6.476562 11.234375 6.71875 C 10.453125 6.957031 9.703125 7.078125 8.984375 7.078125 C 8.109375 7.078125 7.269531 6.9375 6.46875 6.65625 C 5.675781 6.375 4.992188 6.085938 4.421875 5.796875 C 4.203125 5.691406 4.097656 5.523438 4.109375 5.296875 C 4.117188 5.066406 4.378906 4.992188 4.890625 5.078125 C 5.191406 5.117188 5.492188 5.15625 5.796875 5.1875 C 6.109375 5.226562 6.425781 5.25 6.75 5.25 C 7.71875 5.25 8.65625 5.09375 9.5625 4.78125 C 10.46875 4.476562 11.21875 3.945312 11.8125 3.1875 C 12.414062 2.4375 12.71875 1.375 12.71875 0 L 8.890625 0 C 7.578125 0 6.457031 -0.226562 5.53125 -0.6875 C 4.613281 -1.144531 3.867188 -1.726562 3.296875 -2.4375 C 2.734375 -3.15625 2.316406 -3.914062 2.046875 -4.71875 C 1.773438 -5.53125 1.640625 -6.296875 1.640625 -7.015625 Z M 8.859375 -11.640625 C 7.910156 -11.640625 7.128906 -11.410156 6.515625 -10.953125 C 5.910156 -10.492188 5.460938 -9.90625 5.171875 -9.1875 C 4.890625 -8.476562 4.75 -7.753906 4.75 -7.015625 C 4.75 -6.160156 4.945312 -5.414062 5.34375 -4.78125 C 5.738281 -4.15625 6.269531 -3.664062 6.9375 -3.3125 C 7.601562 -2.957031 8.316406 -2.78125 9.078125 -2.78125 L 12.71875 -2.78125 L 12.71875 -6.53125 C 12.71875 -7.445312 12.554688 -8.289062 12.234375 -9.0625 C 11.921875 -9.84375 11.476562 -10.46875 10.90625 -10.9375 C 10.34375 -11.40625 9.660156 -11.640625 8.859375 -11.640625 Z M 8.859375 -11.640625 "/></g></g></g><g fill="#ffffff" fill-opacity="1"><g transform="translate(32.764498, 28.061058)"><g><path d="M 20.453125 0 L -0.328125 0 L -0.328125 -2.78125 L 4.296875 -2.78125 L 4.296875 -20.8125 C 4.296875 -21.363281 4.472656 -21.789062 4.828125 -22.09375 C 5.191406 -22.40625 5.597656 -22.625 6.046875 -22.75 C 6.492188 -22.882812 6.835938 -22.953125 7.078125 -22.953125 C 7.253906 -22.953125 7.34375 -22.863281 7.34375 -22.6875 L 7.34375 -9.109375 C 7.34375 -9.085938 7.363281 -9.078125 7.40625 -9.078125 C 8.394531 -10.503906 9.691406 -11.695312 11.296875 -12.65625 C 12.898438 -13.613281 14.796875 -14.09375 16.984375 -14.09375 C 18.097656 -14.09375 19.164062 -13.820312 20.1875 -13.28125 C 21.21875 -12.75 22.066406 -12.007812 22.734375 -11.0625 C 23.398438 -10.113281 23.734375 -9.003906 23.734375 -7.734375 L 23.734375 -6.296875 C 23.734375 -5.003906 24.003906 -4.09375 24.546875 -3.5625 C 25.097656 -3.039062 25.800781 -2.78125 26.65625 -2.78125 L 27.640625 -2.78125 L 27.640625 0 L 26.65625 0 C 26.039062 0 25.441406 -0.148438 24.859375 -0.453125 C 24.285156 -0.765625 23.78125 -1.238281 23.34375 -1.875 C 23.34375 -1.914062 23.320312 -1.914062 23.28125 -1.875 C 23.0625 -1.320312 22.691406 -0.867188 22.171875 -0.515625 C 21.660156 -0.171875 21.085938 0 20.453125 0 Z M 6.75 -2.78125 L 20.625 -2.78125 L 20.625 -7.140625 C 20.625 -8.085938 20.429688 -8.847656 20.046875 -9.421875 C 19.660156 -10.003906 19.164062 -10.429688 18.5625 -10.703125 C 17.96875 -10.972656 17.332031 -11.109375 16.65625 -11.109375 C 15.257812 -11.109375 13.960938 -10.863281 12.765625 -10.375 C 11.578125 -9.882812 10.539062 -9.234375 9.65625 -8.421875 C 8.769531 -7.617188 8.070312 -6.722656 7.5625 -5.734375 C 7.0625 -4.753906 6.789062 -3.769531 6.75 -2.78125 Z M 6.75 -2.78125 "/></g></g></g><g fill="#ffffff" fill-opacity="1"><g transform="translate(60.074774, 28.061058)"><g><path d="M 4.453125 0 L -0.328125 0 L -0.328125 -2.78125 L 4.453125 -2.78125 L 4.453125 -10.125 C 4.453125 -10.675781 4.632812 -11.101562 5 -11.40625 C 5.363281 -11.71875 5.769531 -11.9375 6.21875 -12.0625 C 6.664062 -12.195312 7 -12.265625 7.21875 -12.265625 C 7.414062 -12.265625 7.515625 -12.175781 7.515625 -12 L 7.515625 -6.328125 C 7.515625 -5.015625 7.796875 -4.09375 8.359375 -3.5625 C 8.929688 -3.039062 9.65625 -2.78125 10.53125 -2.78125 L 12.125 -2.78125 L 12.125 0 L 10.53125 0 C 9.914062 0 9.328125 -0.125 8.765625 -0.375 C 8.210938 -0.625 7.75 -1.054688 7.375 -1.671875 C 7.289062 -1.828125 7.210938 -1.828125 7.140625 -1.671875 C 6.953125 -1.171875 6.597656 -0.765625 6.078125 -0.453125 C 5.566406 -0.148438 5.023438 0 4.453125 0 Z M 7.765625 -14.5625 C 7.378906 -14.5625 7.046875 -14.695312 6.765625 -14.96875 C 6.492188 -15.238281 6.359375 -15.5625 6.359375 -15.9375 C 6.359375 -16.300781 6.492188 -16.625 6.765625 -16.90625 C 7.046875 -17.195312 7.378906 -17.34375 7.765625 -17.34375 C 8.140625 -17.34375 8.460938 -17.195312 8.734375 -16.90625 C 9.003906 -16.625 9.140625 -16.300781 9.140625 -15.9375 C 9.140625 -15.5625 9.003906 -15.238281 8.734375 -14.96875 C 8.460938 -14.695312 8.140625 -14.5625 7.765625 -14.5625 Z M 2.53125 -15.9375 C 2.53125 -16.300781 2.664062 -16.625 2.9375 -16.90625 C 3.207031 -17.195312 3.539062 -17.34375 3.9375 -17.34375 C 4.300781 -17.34375 4.617188 -17.195312 4.890625 -16.90625 C 5.171875 -16.625 5.3125 -16.300781 5.3125 -15.9375 C 5.3125 -15.5625 5.171875 -15.238281 4.890625 -14.96875 C 4.617188 -14.695312 4.300781 -14.5625 3.9375 -14.5625 C 3.539062 -14.5625 3.207031 -14.695312 2.9375 -14.96875 C 2.664062 -15.238281 2.53125 -15.5625 2.53125 -15.9375 Z M 2.53125 -15.9375 "/></g></g></g><g fill="#ffffff" fill-opacity="1"><g transform="translate(71.877531, 28.061058)"><g><path d="M 3.84375 0 L -0.328125 0 L -0.328125 -2.78125 L 3.640625 -2.78125 L 3.640625 -20.8125 C 3.640625 -21.34375 3.816406 -21.765625 4.171875 -22.078125 C 4.535156 -22.398438 4.9375 -22.625 5.375 -22.75 C 5.8125 -22.882812 6.148438 -22.953125 6.390625 -22.953125 C 6.585938 -22.953125 6.6875 -22.863281 6.6875 -22.6875 L 6.6875 -2.890625 C 6.6875 -2.078125 6.40625 -1.390625 5.84375 -0.828125 C 5.289062 -0.273438 4.625 0 3.84375 0 Z M 3.84375 0 "/></g></g></g><g fill="#ffffff" fill-opacity="1"><g transform="translate(80.860737, 28.061058)"><g><path d="M 2.296875 -0.265625 L 2.296875 -20.8125 C 2.296875 -21.363281 2.472656 -21.789062 2.828125 -22.09375 C 3.191406 -22.40625 3.597656 -22.625 4.046875 -22.75 C 4.492188 -22.882812 4.828125 -22.953125 5.046875 -22.953125 C 5.242188 -22.953125 5.34375 -22.863281 5.34375 -22.6875 L 5.34375 -2.125 C 5.34375 -1.601562 5.164062 -1.1875 4.8125 -0.875 C 4.46875 -0.570312 4.078125 -0.347656 3.640625 -0.203125 C 3.203125 -0.0664062 2.863281 0 2.625 0 C 2.40625 0 2.296875 -0.0859375 2.296875 -0.265625 Z M 2.296875 -0.265625 "/></g></g></g><g fill="#ffffff" fill-opacity="1"><g transform="translate(88.49975, 28.061058)"><g><path d="M 8.890625 0 C 7.578125 0 6.457031 -0.226562 5.53125 -0.6875 C 4.613281 -1.144531 3.867188 -1.726562 3.296875 -2.4375 C 2.734375 -3.15625 2.316406 -3.914062 2.046875 -4.71875 C 1.773438 -5.53125 1.640625 -6.296875 1.640625 -7.015625 C 1.640625 -8.265625 1.929688 -9.421875 2.515625 -10.484375 C 3.109375 -11.554688 3.945312 -12.425781 5.03125 -13.09375 C 6.113281 -13.757812 7.398438 -14.09375 8.890625 -14.09375 C 10.171875 -14.09375 11.332031 -13.769531 12.375 -13.125 C 13.414062 -12.476562 14.238281 -11.5625 14.84375 -10.375 C 15.457031 -9.1875 15.765625 -7.78125 15.765625 -6.15625 L 15.765625 0.453125 C 15.765625 1.660156 15.550781 2.6875 15.125 3.53125 C 14.695312 4.382812 14.140625 5.066406 13.453125 5.578125 C 12.765625 6.097656 12.023438 6.476562 11.234375 6.71875 C 10.453125 6.957031 9.703125 7.078125 8.984375 7.078125 C 8.109375 7.078125 7.269531 6.9375 6.46875 6.65625 C 5.675781 6.375 4.992188 6.085938 4.421875 5.796875 C 4.203125 5.691406 4.097656 5.523438 4.109375 5.296875 C 4.117188 5.066406 4.378906 4.992188 4.890625 5.078125 C 5.191406 5.117188 5.492188 5.15625 5.796875 5.1875 C 6.109375 5.226562 6.425781 5.25 6.75 5.25 C 7.71875 5.25 8.65625 5.09375 9.5625 4.78125 C 10.46875 4.476562 11.21875 3.945312 11.8125 3.1875 C 12.414062 2.4375 12.71875 1.375 12.71875 0 Z M 8.859375 -11.640625 C 7.910156 -11.640625 7.128906 -11.410156 6.515625 -10.953125 C 5.910156 -10.492188 5.460938 -9.90625 5.171875 -9.1875 C 4.890625 -8.476562 4.75 -7.753906 4.75 -7.015625 C 4.75 -6.160156 4.945312 -5.414062 5.34375 -4.78125 C 5.738281 -4.15625 6.269531 -3.664062 6.9375 -3.3125 C 7.601562 -2.957031 8.316406 -2.78125 9.078125 -2.78125 L 12.71875 -2.78125 L 12.71875 -6.53125 C 12.71875 -7.445312 12.554688 -8.289062 12.234375 -9.0625 C 11.921875 -9.84375 11.476562 -10.46875 10.90625 -10.9375 C 10.34375 -11.40625 9.660156 -11.640625 8.859375 -11.640625 Z M 8.859375 -11.640625 "/></g></g></g><g fill="#ffffff" fill-opacity="1"><g transform="translate(106.23667, 28.061058)"><g/></g><g transform="translate(113.6134, 28.061058)"><g><path d="M 1.3125 4.484375 C 1.3125 3.566406 1.492188 2.671875 1.859375 1.796875 C 2.234375 0.921875 2.832031 0.128906 3.65625 -0.578125 C 4.476562 -1.285156 5.554688 -1.835938 6.890625 -2.234375 C 6.929688 -2.234375 6.929688 -2.253906 6.890625 -2.296875 C 6.015625 -2.816406 5.273438 -3.519531 4.671875 -4.40625 C 4.066406 -5.289062 3.765625 -6.4375 3.765625 -7.84375 C 3.765625 -8.957031 3.960938 -9.910156 4.359375 -10.703125 C 4.753906 -11.503906 5.269531 -12.148438 5.90625 -12.640625 C 6.539062 -13.128906 7.238281 -13.492188 8 -13.734375 C 8.757812 -13.972656 9.503906 -14.09375 10.234375 -14.09375 C 11.054688 -14.09375 11.894531 -13.976562 12.75 -13.75 C 13.601562 -13.519531 14.378906 -13.171875 15.078125 -12.703125 C 15.773438 -12.234375 16.300781 -11.640625 16.65625 -10.921875 C 16.738281 -10.765625 16.695312 -10.644531 16.53125 -10.5625 C 16 -10.289062 15.460938 -10.15625 14.921875 -10.15625 C 14.390625 -10.15625 13.894531 -10.289062 13.4375 -10.5625 C 13.113281 -10.757812 12.738281 -10.957031 12.3125 -11.15625 C 11.882812 -11.363281 11.34375 -11.46875 10.6875 -11.46875 C 9.550781 -11.46875 8.640625 -11.117188 7.953125 -10.421875 C 7.265625 -9.722656 6.921875 -8.773438 6.921875 -7.578125 C 6.921875 -6.585938 7.160156 -5.773438 7.640625 -5.140625 C 8.117188 -4.515625 8.738281 -4.03125 9.5 -3.6875 C 10.269531 -3.351562 11.085938 -3.117188 11.953125 -2.984375 C 12.816406 -2.847656 13.617188 -2.78125 14.359375 -2.78125 L 18.15625 -2.78125 C 18.332031 -2.78125 18.421875 -2.707031 18.421875 -2.5625 C 18.441406 -2.1875 18.34375 -1.800781 18.125 -1.40625 C 17.90625 -1.007812 17.613281 -0.675781 17.25 -0.40625 C 16.894531 -0.132812 16.5 0 16.0625 0 L 10.921875 0 C 9.273438 0 7.984375 0.203125 7.046875 0.609375 C 6.109375 1.015625 5.441406 1.546875 5.046875 2.203125 C 4.648438 2.859375 4.453125 3.585938 4.453125 4.390625 C 4.453125 5.722656 5.03125 6.804688 6.1875 7.640625 C 7.351562 8.472656 8.960938 8.890625 11.015625 8.890625 C 12.429688 8.890625 13.707031 8.707031 14.84375 8.34375 C 15.988281 7.976562 16.910156 7.566406 17.609375 7.109375 C 17.804688 6.984375 17.984375 6.976562 18.140625 7.09375 C 18.304688 7.21875 18.289062 7.398438 18.09375 7.640625 L 15.796875 10.03125 C 15.492188 10.363281 15.007812 10.628906 14.34375 10.828125 C 13.675781 11.035156 13.007812 11.1875 12.34375 11.28125 C 11.675781 11.382812 11.164062 11.4375 10.8125 11.4375 C 7.664062 11.4375 5.296875 10.789062 3.703125 9.5 C 2.109375 8.21875 1.3125 6.546875 1.3125 4.484375 Z M 1.3125 4.484375 "/></g></g></g><g fill="#ffffff" fill-opacity="1"><g transform="translate(133.350228, 28.061058)"><g><path d="M 2.296875 -0.265625 L 2.296875 -20.8125 C 2.296875 -21.363281 2.472656 -21.789062 2.828125 -22.09375 C 3.191406 -22.40625 3.597656 -22.625 4.046875 -22.75 C 4.492188 -22.882812 4.828125 -22.953125 5.046875 -22.953125 C 5.242188 -22.953125 5.34375 -22.863281 5.34375 -22.6875 L 5.34375 -2.125 C 5.34375 -1.601562 5.164062 -1.1875 4.8125 -0.875 C 4.46875 -0.570312 4.078125 -0.347656 3.640625 -0.203125 C 3.203125 -0.0664062 2.863281 0 2.625 0 C 2.40625 0 2.296875 -0.0859375 2.296875 -0.265625 Z M 2.296875 -0.265625 "/></g></g></g><g fill="#ffffff" fill-opacity="1"><g transform="translate(140.989242, 28.061058)"><g><path d="M 1.578125 0 C 1.359375 0 1.269531 -0.0976562 1.3125 -0.296875 C 1.445312 -0.972656 1.757812 -1.554688 2.25 -2.046875 C 2.738281 -2.535156 3.34375 -2.78125 4.0625 -2.78125 L 13.25 -2.78125 C 13.394531 -3.832031 13.179688 -4.894531 12.609375 -5.96875 C 12.046875 -7.039062 11.234375 -7.988281 10.171875 -8.8125 C 9.117188 -9.644531 7.914062 -10.226562 6.5625 -10.5625 C 5.8125 -10.726562 5.265625 -11.160156 4.921875 -11.859375 C 4.585938 -12.566406 4.421875 -13.222656 4.421875 -13.828125 C 4.421875 -14.003906 4.519531 -14.09375 4.71875 -14.09375 C 6.90625 -13.914062 8.738281 -13.382812 10.21875 -12.5 C 11.707031 -11.625 12.894531 -10.554688 13.78125 -9.296875 C 14.664062 -8.035156 15.273438 -6.757812 15.609375 -5.46875 C 15.847656 -4.550781 16.285156 -3.875 16.921875 -3.4375 C 17.554688 -3 18.242188 -2.78125 18.984375 -2.78125 L 20.625 -2.78125 L 20.625 0 L 18.984375 0 C 18.367188 0 17.773438 -0.148438 17.203125 -0.453125 C 16.640625 -0.765625 16.140625 -1.238281 15.703125 -1.875 C 15.660156 -1.914062 15.640625 -1.914062 15.640625 -1.875 C 15.421875 -1.320312 15.109375 -0.867188 14.703125 -0.515625 C 14.296875 -0.171875 13.773438 0 13.140625 0 Z M 1.578125 0 "/></g></g></g><g fill="#ffffff" fill-opacity="1"><g transform="translate(161.28343, 28.061058)"><g><path d="M -0.328125 -2.78125 L 4.203125 -2.78125 L 4.203125 -12 C 4.203125 -12.519531 4.378906 -12.929688 4.734375 -13.234375 C 5.097656 -13.546875 5.5 -13.765625 5.9375 -13.890625 C 6.375 -14.023438 6.710938 -14.09375 6.953125 -14.09375 C 7.148438 -14.09375 7.25 -14.019531 7.25 -13.875 L 7.25 -2.890625 C 7.25 -2.097656 6.96875 -1.414062 6.40625 -0.84375 C 5.851562 -0.28125 5.171875 0 4.359375 0 L -0.328125 0 Z M 4.328125 5.875 C 3.953125 5.875 3.628906 5.734375 3.359375 5.453125 C 3.085938 5.179688 2.953125 4.847656 2.953125 4.453125 C 2.953125 4.085938 3.085938 3.765625 3.359375 3.484375 C 3.628906 3.210938 3.953125 3.078125 4.328125 3.078125 C 4.722656 3.078125 5.054688 3.210938 5.328125 3.484375 C 5.597656 3.765625 5.734375 4.085938 5.734375 4.453125 C 5.734375 4.847656 5.597656 5.179688 5.328125 5.453125 C 5.054688 5.734375 4.722656 5.875 4.328125 5.875 Z M 4.328125 5.875 "/></g></g></g><g fill="#ffffff" fill-opacity="1"><g transform="translate(170.496145, 28.061058)"><g><path d="M 1.3125 -0.296875 C 1.3125 -0.535156 1.375 -0.804688 1.5 -1.109375 C 1.632812 -1.421875 1.859375 -1.691406 2.171875 -1.921875 C 2.492188 -2.148438 2.914062 -2.265625 3.4375 -2.265625 L 9.34375 -2.265625 C 10 -2.265625 10.585938 -2.460938 11.109375 -2.859375 C 11.640625 -3.265625 12.0625 -3.78125 12.375 -4.40625 C 12.695312 -5.03125 12.859375 -5.660156 12.859375 -6.296875 L 12.859375 -20.8125 C 12.859375 -21.363281 13.035156 -21.789062 13.390625 -22.09375 C 13.753906 -22.40625 14.15625 -22.625 14.59375 -22.75 C 15.03125 -22.882812 15.367188 -22.953125 15.609375 -22.953125 C 15.804688 -22.953125 15.90625 -22.851562 15.90625 -22.65625 L 15.90625 -6.15625 C 15.90625 -5.019531 15.601562 -3.988281 15 -3.0625 C 14.394531 -2.132812 13.609375 -1.390625 12.640625 -0.828125 C 11.671875 -0.273438 10.613281 0 9.46875 0 L 1.609375 0 C 1.410156 0 1.3125 -0.0976562 1.3125 -0.296875 Z M 3.578125 -3.796875 C 3.378906 -3.796875 3.28125 -3.882812 3.28125 -4.0625 L 3.28125 -18.6875 C 3.28125 -19.238281 3.457031 -19.664062 3.8125 -19.96875 C 4.175781 -20.269531 4.578125 -20.484375 5.015625 -20.609375 C 5.453125 -20.742188 5.789062 -20.8125 6.03125 -20.8125 C 6.226562 -20.8125 6.328125 -20.726562 6.328125 -20.5625 L 6.328125 -5.9375 C 6.328125 -5.40625 6.144531 -4.988281 5.78125 -4.6875 C 5.425781 -4.382812 5.03125 -4.160156 4.59375 -4.015625 C 4.15625 -3.867188 3.816406 -3.796875 3.578125 -3.796875 Z M 1.734375 6.53125 C 1.710938 6.175781 1.835938 5.890625 2.109375 5.671875 C 2.390625 5.453125 2.703125 5.34375 3.046875 5.34375 L 3.765625 5.34375 C 3.785156 5.34375 3.800781 5.332031 3.8125 5.3125 C 3.832031 5.289062 3.828125 5.28125 3.796875 5.28125 C 3.578125 5.101562 3.398438 4.890625 3.265625 4.640625 C 3.140625 4.390625 3.078125 4.085938 3.078125 3.734375 C 3.078125 3.191406 3.210938 2.773438 3.484375 2.484375 C 3.765625 2.203125 4.085938 2 4.453125 1.875 C 4.828125 1.757812 5.15625 1.703125 5.4375 1.703125 C 5.875 1.703125 6.28125 1.804688 6.65625 2.015625 C 7.03125 2.222656 7.328125 2.546875 7.546875 2.984375 C 7.585938 3.066406 7.578125 3.132812 7.515625 3.1875 C 7.335938 3.269531 7.101562 3.328125 6.8125 3.359375 C 6.53125 3.390625 6.3125 3.363281 6.15625 3.28125 C 6.09375 3.238281 5.984375 3.179688 5.828125 3.109375 C 5.679688 3.046875 5.519531 3.015625 5.34375 3.015625 C 5.125 3.015625 4.914062 3.078125 4.71875 3.203125 C 4.519531 3.335938 4.421875 3.550781 4.421875 3.84375 C 4.421875 4.34375 4.640625 4.71875 5.078125 4.96875 C 5.515625 5.21875 5.972656 5.34375 6.453125 5.34375 L 7.46875 5.34375 C 7.5625 5.34375 7.609375 5.382812 7.609375 5.46875 C 7.609375 5.800781 7.472656 6.082031 7.203125 6.3125 C 6.941406 6.539062 6.640625 6.65625 6.296875 6.65625 L 1.875 6.65625 C 1.78125 6.65625 1.734375 6.613281 1.734375 6.53125 Z M 1.734375 6.53125 "/></g></g></g><g fill="#ffffff" fill-opacity="1"><g transform="translate(188.692065, 28.061058)"><g><path d="M 2.296875 -0.265625 L 2.296875 -20.8125 C 2.296875 -21.363281 2.472656 -21.789062 2.828125 -22.09375 C 3.191406 -22.40625 3.597656 -22.625 4.046875 -22.75 C 4.492188 -22.882812 4.828125 -22.953125 5.046875 -22.953125 C 5.242188 -22.953125 5.34375 -22.863281 5.34375 -22.6875 L 5.34375 -2.125 C 5.34375 -1.601562 5.164062 -1.1875 4.8125 -0.875 C 4.46875 -0.570312 4.078125 -0.347656 3.640625 -0.203125 C 3.203125 -0.0664062 2.863281 0 2.625 0 C 2.40625 0 2.296875 -0.0859375 2.296875 -0.265625 Z M 2.296875 -0.265625 "/></g></g></g><g fill="#ffffff" fill-opacity="1"><g transform="translate(196.331079, 28.061058)"><g/></g></g><g fill="#ffffff" fill-opacity="1"><g transform="translate(203.70781, 28.061058)"><g><path d="M 1.640625 -6.0625 C 1.640625 -6.195312 1.707031 -6.265625 1.84375 -6.265625 C 2.101562 -6.265625 2.398438 -6.171875 2.734375 -5.984375 C 3.078125 -5.796875 3.375 -5.535156 3.625 -5.203125 C 3.875 -4.878906 4 -4.488281 4 -4.03125 L 4 -1.609375 C 4 0.335938 4.710938 1.804688 6.140625 2.796875 C 7.578125 3.796875 9.488281 4.296875 11.875 4.296875 C 13.175781 4.296875 14.257812 4.148438 15.125 3.859375 C 15.988281 3.578125 16.671875 3.226562 17.171875 2.8125 C 17.679688 2.40625 18.046875 1.984375 18.265625 1.546875 C 18.484375 1.109375 18.59375 0.734375 18.59375 0.421875 C 18.59375 0.0976562 18.503906 -0.203125 18.328125 -0.484375 C 18.148438 -0.773438 17.84375 -1.050781 17.40625 -1.3125 C 16.664062 -1.75 16.148438 -2.320312 15.859375 -3.03125 C 15.578125 -3.738281 15.613281 -4.519531 15.96875 -5.375 C 16.050781 -5.570312 16.171875 -5.628906 16.328125 -5.546875 C 16.765625 -5.328125 17.296875 -5 17.921875 -4.5625 C 18.546875 -4.125 19.234375 -3.71875 19.984375 -3.34375 C 20.734375 -2.96875 21.515625 -2.78125 22.328125 -2.78125 L 23.109375 -2.78125 L 23.109375 0 L 22.5625 0 C 22.539062 0 22.472656 0 22.359375 0 C 22.253906 0 22.113281 -0.0078125 21.9375 -0.03125 C 21.820312 -0.0507812 21.753906 -0.046875 21.734375 -0.015625 C 21.710938 0.015625 21.703125 0.0859375 21.703125 0.203125 C 21.703125 1.597656 21.257812 2.8125 20.375 3.84375 C 19.488281 4.882812 18.300781 5.679688 16.8125 6.234375 C 15.332031 6.796875 13.6875 7.078125 11.875 7.078125 C 9.882812 7.078125 8.117188 6.800781 6.578125 6.25 C 5.035156 5.707031 3.828125 4.847656 2.953125 3.671875 C 2.078125 2.492188 1.640625 0.953125 1.640625 -0.953125 Z M 1.640625 -6.0625 "/></g></g></g><g fill="#ffffff" fill-opacity="1"><g transform="translate(226.493682, 28.061058)"><g><path d="M -0.328125 0 L -0.328125 -2.78125 L 4.625 -2.78125 C 4.007812 -3.175781 3.472656 -3.757812 3.015625 -4.53125 C 2.554688 -5.3125 2.328125 -6.148438 2.328125 -7.046875 C 2.328125 -8.296875 2.601562 -9.453125 3.15625 -10.515625 C 3.71875 -11.585938 4.53125 -12.453125 5.59375 -13.109375 C 6.65625 -13.765625 7.925781 -14.09375 9.40625 -14.09375 C 10.632812 -14.09375 11.753906 -13.789062 12.765625 -13.1875 C 13.785156 -12.59375 14.59375 -11.722656 15.1875 -10.578125 C 15.789062 -9.429688 16.09375 -8.046875 16.09375 -6.421875 L 16.09375 -2.78125 L 19.796875 -2.78125 L 19.796875 0 Z M 9.3125 -11.640625 C 8.375 -11.640625 7.617188 -11.410156 7.046875 -10.953125 C 6.484375 -10.492188 6.070312 -9.910156 5.8125 -9.203125 C 5.5625 -8.503906 5.4375 -7.785156 5.4375 -7.046875 C 5.4375 -5.773438 5.773438 -4.742188 6.453125 -3.953125 C 7.128906 -3.171875 8.039062 -2.78125 9.1875 -2.78125 L 13.015625 -2.78125 L 13.015625 -6.75 C 13.015625 -7.664062 12.847656 -8.488281 12.515625 -9.21875 C 12.191406 -9.957031 11.75 -10.546875 11.1875 -10.984375 C 10.632812 -11.421875 10.007812 -11.640625 9.3125 -11.640625 Z M 10.0625 -17.734375 C 10.0625 -18.109375 10.195312 -18.4375 10.46875 -18.71875 C 10.75 -19 11.082031 -19.140625 11.46875 -19.140625 C 11.84375 -19.140625 12.164062 -19 12.4375 -18.71875 C 12.71875 -18.4375 12.859375 -18.109375 12.859375 -17.734375 C 12.859375 -17.367188 12.71875 -17.046875 12.4375 -16.765625 C 12.164062 -16.492188 11.84375 -16.359375 11.46875 -16.359375 C 11.082031 -16.359375 10.75 -16.492188 10.46875 -16.765625 C 10.195312 -17.046875 10.0625 -17.367188 10.0625 -17.734375 Z M 7.640625 -16.359375 C 7.265625 -16.359375 6.941406 -16.492188 6.671875 -16.765625 C 6.398438 -17.046875 6.265625 -17.367188 6.265625 -17.734375 C 6.265625 -18.109375 6.398438 -18.4375 6.671875 -18.71875 C 6.941406 -19 7.265625 -19.140625 7.640625 -19.140625 C 8.035156 -19.140625 8.367188 -19 8.640625 -18.71875 C 8.910156 -18.4375 9.046875 -18.109375 9.046875 -17.734375 C 9.046875 -17.367188 8.910156 -17.046875 8.640625 -16.765625 C 8.367188 -16.492188 8.035156 -16.359375 7.640625 -16.359375 Z M 7.640625 -16.359375 "/></g></g></g><g fill="#ffffff" fill-opacity="1"><g transform="translate(245.968227, 28.061058)"><g><path d="M 4.453125 0 L -0.328125 0 L -0.328125 -2.78125 L 4.453125 -2.78125 L 4.453125 -10.125 C 4.453125 -10.675781 4.632812 -11.101562 5 -11.40625 C 5.363281 -11.71875 5.769531 -11.9375 6.21875 -12.0625 C 6.664062 -12.195312 7 -12.265625 7.21875 -12.265625 C 7.414062 -12.265625 7.515625 -12.175781 7.515625 -12 L 7.515625 -6.328125 C 7.515625 -5.015625 7.796875 -4.09375 8.359375 -3.5625 C 8.929688 -3.039062 9.65625 -2.78125 10.53125 -2.78125 L 12.125 -2.78125 L 12.125 0 L 10.53125 0 C 9.914062 0 9.328125 -0.125 8.765625 -0.375 C 8.210938 -0.625 7.75 -1.054688 7.375 -1.671875 C 7.289062 -1.828125 7.210938 -1.828125 7.140625 -1.671875 C 6.953125 -1.171875 6.597656 -0.765625 6.078125 -0.453125 C 5.566406 -0.148438 5.023438 0 4.453125 0 Z M 7.765625 -14.5625 C 7.378906 -14.5625 7.046875 -14.695312 6.765625 -14.96875 C 6.492188 -15.238281 6.359375 -15.5625 6.359375 -15.9375 C 6.359375 -16.300781 6.492188 -16.625 6.765625 -16.90625 C 7.046875 -17.195312 7.378906 -17.34375 7.765625 -17.34375 C 8.140625 -17.34375 8.460938 -17.195312 8.734375 -16.90625 C 9.003906 -16.625 9.140625 -16.300781 9.140625 -15.9375 C 9.140625 -15.5625 9.003906 -15.238281 8.734375 -14.96875 C 8.460938 -14.695312 8.140625 -14.5625 7.765625 -14.5625 Z M 2.53125 -15.9375 C 2.53125 -16.300781 2.664062 -16.625 2.9375 -16.90625 C 3.207031 -17.195312 3.539062 -17.34375 3.9375 -17.34375 C 4.300781 -17.34375 4.617188 -17.195312 4.890625 -16.90625 C 5.171875 -16.625 5.3125 -16.300781 5.3125 -15.9375 C 5.3125 -15.5625 5.171875 -15.238281 4.890625 -14.96875 C 4.617188 -14.695312 4.300781 -14.5625 3.9375 -14.5625 C 3.539062 -14.5625 3.207031 -14.695312 2.9375 -14.96875 C 2.664062 -15.238281 2.53125 -15.5625 2.53125 -15.9375 Z M 2.53125 -15.9375 "/></g></g></g><g fill="#ffffff" fill-opacity="1"><g transform="translate(257.770984, 28.061058)"><g><path d="M 4.359375 0 L -0.328125 0 L -0.328125 -2.78125 L 4.359375 -2.78125 L 4.359375 -20.8125 C 4.359375 -21.363281 4.535156 -21.789062 4.890625 -22.09375 C 5.253906 -22.40625 5.65625 -22.625 6.09375 -22.75 C 6.53125 -22.882812 6.867188 -22.953125 7.109375 -22.953125 C 7.304688 -22.953125 7.40625 -22.851562 7.40625 -22.65625 L 7.40625 -6.296875 C 7.40625 -5.003906 7.6875 -4.09375 8.25 -3.5625 C 8.820312 -3.039062 9.535156 -2.78125 10.390625 -2.78125 L 11.046875 -2.78125 L 11.046875 0 L 10.390625 0 C 9.773438 0 9.195312 -0.128906 8.65625 -0.390625 C 8.113281 -0.648438 7.65625 -1.144531 7.28125 -1.875 C 7.238281 -1.957031 7.21875 -1.957031 7.21875 -1.875 C 7.101562 -1.320312 6.753906 -0.867188 6.171875 -0.515625 C 5.597656 -0.171875 4.992188 0 4.359375 0 Z M 4.359375 0 "/></g></g></g><g fill="#ffffff" fill-opacity="1"><g transform="translate(276.163622, 32.192028)"><g><path d="M 0 -20.953125 C -0.0195312 -21.128906 0.00390625 -21.378906 0.078125 -21.703125 C 0.160156 -22.035156 0.382812 -22.242188 0.75 -22.328125 L 4.09375 -23.140625 C 3.394531 -23.429688 3.046875 -23.945312 3.046875 -24.6875 C 3.046875 -25.28125 3.210938 -25.804688 3.546875 -26.265625 C 3.890625 -26.722656 4.367188 -26.953125 4.984375 -26.953125 C 5.597656 -26.953125 6.097656 -26.75 6.484375 -26.34375 C 6.878906 -25.9375 7.078125 -25.425781 7.078125 -24.8125 C 7.078125 -24.132812 6.910156 -23.53125 6.578125 -23 C 6.253906 -22.46875 5.734375 -22.125 5.015625 -21.96875 L 0.15625 -20.859375 C 0.0507812 -20.804688 0 -20.835938 0 -20.953125 Z M 5.015625 -25.796875 C 4.753906 -25.796875 4.535156 -25.679688 4.359375 -25.453125 C 4.179688 -25.222656 4.113281 -24.925781 4.15625 -24.5625 C 4.207031 -24.207031 4.335938 -23.9375 4.546875 -23.75 C 4.753906 -23.5625 4.96875 -23.46875 5.1875 -23.46875 C 5.46875 -23.601562 5.644531 -23.789062 5.71875 -24.03125 C 5.800781 -24.269531 5.84375 -24.519531 5.84375 -24.78125 C 5.84375 -25.09375 5.765625 -25.335938 5.609375 -25.515625 C 5.453125 -25.703125 5.253906 -25.796875 5.015625 -25.796875 Z M 5.015625 -25.796875 "/></g></g></g><g fill="#ffffff" fill-opacity="1"><g transform="translate(268.491815, 28.061058)"><g><path d="M -0.328125 0 L -0.328125 -2.78125 L 0.953125 -2.78125 C 1.429688 -2.78125 1.90625 -2.921875 2.375 -3.203125 C 2.84375 -3.492188 3.238281 -3.957031 3.5625 -4.59375 C 3.894531 -5.226562 4.0625 -6.046875 4.0625 -7.046875 C 4.0625 -8.335938 4.347656 -9.519531 4.921875 -10.59375 C 5.503906 -11.664062 6.304688 -12.515625 7.328125 -13.140625 C 8.347656 -13.773438 9.507812 -14.09375 10.8125 -14.09375 C 12.144531 -14.09375 13.320312 -13.773438 14.34375 -13.140625 C 15.363281 -12.515625 16.160156 -11.664062 16.734375 -10.59375 C 17.316406 -9.519531 17.609375 -8.335938 17.609375 -7.046875 C 17.609375 -4.992188 17.054688 -3.304688 15.953125 -1.984375 C 14.847656 -0.660156 13.222656 0 11.078125 0 C 9.765625 0 8.707031 -0.289062 7.90625 -0.875 C 7.113281 -1.46875 6.46875 -2.210938 5.96875 -3.109375 C 5.96875 -3.109375 5.945312 -3.109375 5.90625 -3.109375 C 5.488281 -2.046875 4.773438 -1.257812 3.765625 -0.75 C 2.765625 -0.25 1.6875 0 0.53125 0 Z M 7.1875 -7.046875 C 7.1875 -5.804688 7.492188 -4.734375 8.109375 -3.828125 C 8.734375 -2.929688 9.632812 -2.484375 10.8125 -2.484375 C 12.101562 -2.484375 13.035156 -2.929688 13.609375 -3.828125 C 14.191406 -4.734375 14.484375 -5.804688 14.484375 -7.046875 C 14.484375 -7.878906 14.320312 -8.644531 14 -9.34375 C 13.675781 -10.039062 13.238281 -10.597656 12.6875 -11.015625 C 12.144531 -11.429688 11.519531 -11.640625 10.8125 -11.640625 C 10.113281 -11.640625 9.488281 -11.429688 8.9375 -11.015625 C 8.394531 -10.597656 7.96875 -10.039062 7.65625 -9.34375 C 7.34375 -8.644531 7.1875 -7.878906 7.1875 -7.046875 Z M 7.1875 -7.046875 "/></g></g></g><g fill="#ffffff" fill-opacity="1"><g transform="translate(287.736869, 28.061058)"><g/></g></g><g fill="#ffffff" fill-opacity="1"><g transform="translate(295.1136, 28.061058)"><g><path d="M 1.640625 -10.53125 C 1.640625 -10.71875 1.738281 -10.8125 1.9375 -10.8125 C 2.15625 -10.84375 2.421875 -10.789062 2.734375 -10.65625 C 3.054688 -10.519531 3.34375 -10.3125 3.59375 -10.03125 C 3.84375 -9.75 3.96875 -9.378906 3.96875 -8.921875 L 3.96875 -7.875 C 3.96875 -6.5625 4.144531 -5.550781 4.5 -4.84375 C 4.863281 -4.144531 5.320312 -3.648438 5.875 -3.359375 C 6.4375 -3.066406 7.03125 -2.894531 7.65625 -2.84375 C 8.28125 -2.800781 8.863281 -2.78125 9.40625 -2.78125 L 23.1875 -2.78125 L 23.1875 -10.15625 C 23.1875 -10.6875 23.363281 -11.101562 23.71875 -11.40625 C 24.082031 -11.71875 24.484375 -11.9375 24.921875 -12.0625 C 25.359375 -12.195312 25.695312 -12.265625 25.9375 -12.265625 C 26.132812 -12.265625 26.234375 -12.164062 26.234375 -11.96875 L 26.234375 -6.15625 C 26.234375 -4.9375 26.519531 -4.066406 27.09375 -3.546875 C 27.675781 -3.035156 28.394531 -2.78125 29.25 -2.78125 L 30.890625 -2.78125 L 30.890625 0 L 29.25 0 C 28.019531 0 26.976562 -0.632812 26.125 -1.90625 C 26.082031 -1.945312 26.0625 -1.9375 26.0625 -1.875 C 25.84375 -1.320312 25.460938 -0.867188 24.921875 -0.515625 C 24.390625 -0.171875 23.820312 0 23.21875 0 L 8.984375 0 C 8.503906 0 7.941406 -0.0390625 7.296875 -0.125 C 6.648438 -0.21875 6 -0.40625 5.34375 -0.6875 C 4.6875 -0.96875 4.078125 -1.375 3.515625 -1.90625 C 2.960938 -2.445312 2.507812 -3.160156 2.15625 -4.046875 C 1.8125 -4.929688 1.640625 -6.039062 1.640625 -7.375 Z M 10.5625 -15.609375 C 10.5625 -15.972656 10.695312 -16.296875 10.96875 -16.578125 C 11.238281 -16.867188 11.5625 -17.015625 11.9375 -17.015625 C 12.332031 -17.015625 12.664062 -16.867188 12.9375 -16.578125 C 13.207031 -16.296875 13.34375 -15.972656 13.34375 -15.609375 C 13.34375 -15.234375 13.207031 -14.910156 12.9375 -14.640625 C 12.664062 -14.367188 12.332031 -14.234375 11.9375 -14.234375 C 11.5625 -14.234375 11.238281 -14.367188 10.96875 -14.640625 C 10.695312 -14.910156 10.5625 -15.234375 10.5625 -15.609375 Z M 13.96875 -17.46875 C 13.59375 -17.46875 13.269531 -17.601562 13 -17.875 C 12.726562 -18.15625 12.59375 -18.492188 12.59375 -18.890625 C 12.59375 -19.253906 12.726562 -19.570312 13 -19.84375 C 13.269531 -20.125 13.59375 -20.265625 13.96875 -20.265625 C 14.34375 -20.265625 14.671875 -20.125 14.953125 -19.84375 C 15.234375 -19.570312 15.375 -19.253906 15.375 -18.890625 C 15.375 -18.492188 15.234375 -18.15625 14.953125 -17.875 C 14.671875 -17.601562 14.34375 -17.46875 13.96875 -17.46875 Z M 14.390625 -15.609375 C 14.390625 -15.972656 14.523438 -16.296875 14.796875 -16.578125 C 15.078125 -16.867188 15.410156 -17.015625 15.796875 -17.015625 C 16.171875 -17.015625 16.492188 -16.867188 16.765625 -16.578125 C 17.046875 -16.296875 17.1875 -15.972656 17.1875 -15.609375 C 17.1875 -15.234375 17.046875 -14.910156 16.765625 -14.640625 C 16.492188 -14.367188 16.171875 -14.234375 15.796875 -14.234375 C 15.410156 -14.234375 15.078125 -14.367188 14.796875 -14.640625 C 14.523438 -14.910156 14.390625 -15.234375 14.390625 -15.609375 Z M 14.390625 -15.609375 "/></g></g></g><g fill="#ffffff" fill-opacity="1"><g transform="translate(325.669636, 28.061058)"><g><path d="M -0.328125 0 L -0.328125 -2.78125 L 4.453125 -2.78125 L 4.453125 -10.125 C 4.453125 -10.675781 4.632812 -11.101562 5 -11.40625 C 5.363281 -11.71875 5.769531 -11.9375 6.21875 -12.0625 C 6.664062 -12.195312 7 -12.265625 7.21875 -12.265625 C 7.414062 -12.265625 7.515625 -12.175781 7.515625 -12 L 7.515625 -6.328125 C 7.515625 -5.015625 7.796875 -4.09375 8.359375 -3.5625 C 8.929688 -3.039062 9.65625 -2.78125 10.53125 -2.78125 L 12.125 -2.78125 L 12.125 0 L 10.53125 0 C 9.914062 0 9.328125 -0.125 8.765625 -0.375 C 8.210938 -0.625 7.75 -1.054688 7.375 -1.671875 C 7.289062 -1.828125 7.210938 -1.828125 7.140625 -1.671875 C 6.953125 -1.171875 6.597656 -0.765625 6.078125 -0.453125 C 5.566406 -0.148438 5.023438 0 4.453125 0 Z M 7.765625 5.875 C 7.398438 5.875 7.078125 5.734375 6.796875 5.453125 C 6.523438 5.179688 6.390625 4.847656 6.390625 4.453125 C 6.390625 4.085938 6.523438 3.765625 6.796875 3.484375 C 7.078125 3.210938 7.398438 3.078125 7.765625 3.078125 C 8.160156 3.078125 8.492188 3.210938 8.765625 3.484375 C 9.046875 3.765625 9.1875 4.085938 9.1875 4.453125 C 9.1875 4.847656 9.046875 5.179688 8.765625 5.453125 C 8.492188 5.734375 8.160156 5.875 7.765625 5.875 Z M 2.5625 4.453125 C 2.5625 4.085938 2.695312 3.765625 2.96875 3.484375 C 3.238281 3.210938 3.5625 3.078125 3.9375 3.078125 C 4.332031 3.078125 4.664062 3.210938 4.9375 3.484375 C 5.207031 3.765625 5.34375 4.085938 5.34375 4.453125 C 5.34375 4.847656 5.207031 5.179688 4.9375 5.453125 C 4.664062 5.734375 4.332031 5.875 3.9375 5.875 C 3.5625 5.875 3.238281 5.734375 2.96875 5.453125 C 2.695312 5.179688 2.5625 4.847656 2.5625 4.453125 Z M 2.5625 4.453125 "/></g></g></g><g fill="#ffffff" fill-opacity="1"><g transform="translate(337.472375, 28.061058)"><g><path d="M -0.328125 0 L -0.328125 -2.78125 L 17.015625 -2.78125 C 16.953125 -3.75 16.773438 -4.726562 16.484375 -5.71875 C 16.203125 -6.71875 15.753906 -7.648438 15.140625 -8.515625 C 14.535156 -9.390625 13.722656 -10.113281 12.703125 -10.6875 C 11.691406 -11.257812 10.410156 -11.578125 8.859375 -11.640625 C 7.785156 -11.679688 6.953125 -11.691406 6.359375 -11.671875 C 5.765625 -11.648438 5.164062 -11.640625 4.5625 -11.640625 C 3.707031 -11.640625 3.03125 -11.757812 2.53125 -12 C 2.039062 -12.238281 1.691406 -12.519531 1.484375 -12.84375 C 1.285156 -13.175781 1.148438 -13.453125 1.078125 -13.671875 C 1.035156 -13.867188 1.082031 -13.96875 1.21875 -13.96875 C 2.570312 -14.007812 3.765625 -14.046875 4.796875 -14.078125 C 5.835938 -14.109375 7.023438 -14.113281 8.359375 -14.09375 C 10.304688 -14.070312 11.953125 -13.828125 13.296875 -13.359375 C 14.640625 -12.890625 15.75 -12.269531 16.625 -11.5 C 17.5 -10.738281 18.179688 -9.882812 18.671875 -8.9375 C 19.160156 -7.988281 19.515625 -7.007812 19.734375 -6 C 19.953125 -4.988281 20.09375 -4.023438 20.15625 -3.109375 C 20.226562 -2.109375 19.976562 -1.335938 19.40625 -0.796875 C 18.84375 -0.265625 18.144531 0 17.3125 0 Z M -0.328125 0 "/></g></g></g><g fill="#ffffff" fill-opacity="1"><g transform="translate(359.274716, 28.061058)"><g/></g><g transform="translate(366.651446, 28.061058)"><g><path d="M 1.3125 9.9375 L 1.3125 1.796875 C 1.3125 0.316406 1.757812 -0.8125 2.65625 -1.59375 C 3.550781 -2.382812 4.632812 -2.78125 5.90625 -2.78125 L 6.890625 -2.78125 C 7.035156 -2.78125 7.054688 -2.835938 6.953125 -2.953125 C 6.398438 -3.492188 5.972656 -4.125 5.671875 -4.84375 C 5.367188 -5.570312 5.21875 -6.335938 5.21875 -7.140625 C 5.21875 -8.429688 5.503906 -9.601562 6.078125 -10.65625 C 6.660156 -11.707031 7.460938 -12.539062 8.484375 -13.15625 C 9.515625 -13.78125 10.6875 -14.09375 12 -14.09375 C 13.332031 -14.09375 14.503906 -13.78125 15.515625 -13.15625 C 16.535156 -12.539062 17.335938 -11.707031 17.921875 -10.65625 C 18.515625 -9.601562 18.8125 -8.429688 18.8125 -7.140625 C 18.8125 -5.640625 18.515625 -4.359375 17.921875 -3.296875 C 17.335938 -2.234375 16.535156 -1.414062 15.515625 -0.84375 C 14.503906 -0.28125 13.332031 0 12 0 L 5.28125 0 C 4.84375 0 4.457031 0.160156 4.125 0.484375 C 3.800781 0.816406 3.640625 1.203125 3.640625 1.640625 L 3.640625 8.09375 C 3.640625 8.625 3.519531 9.046875 3.28125 9.359375 C 3.039062 9.671875 2.757812 9.894531 2.4375 10.03125 C 2.125 10.164062 1.847656 10.234375 1.609375 10.234375 C 1.410156 10.234375 1.3125 10.132812 1.3125 9.9375 Z M 8.328125 -7.140625 C 8.328125 -5.898438 8.640625 -4.859375 9.265625 -4.015625 C 9.890625 -3.171875 10.800781 -2.75 12 -2.75 C 13.269531 -2.75 14.203125 -3.179688 14.796875 -4.046875 C 15.398438 -4.910156 15.703125 -5.96875 15.703125 -7.21875 C 15.703125 -8.039062 15.535156 -8.785156 15.203125 -9.453125 C 14.878906 -10.117188 14.4375 -10.648438 13.875 -11.046875 C 13.320312 -11.441406 12.695312 -11.640625 12 -11.640625 C 11.300781 -11.640625 10.671875 -11.4375 10.109375 -11.03125 C 9.554688 -10.625 9.117188 -10.082031 8.796875 -9.40625 C 8.484375 -8.726562 8.328125 -7.972656 8.328125 -7.140625 Z M 8.328125 -7.140625 "/></g></g></g><g fill="#ffffff" fill-opacity="1"><g transform="translate(390.191413, 30.913384)"><g><path d="M 0 -20.953125 C -0.0195312 -21.128906 0.00390625 -21.378906 0.078125 -21.703125 C 0.160156 -22.035156 0.382812 -22.242188 0.75 -22.328125 L 4.09375 -23.140625 C 3.394531 -23.429688 3.046875 -23.945312 3.046875 -24.6875 C 3.046875 -25.28125 3.210938 -25.804688 3.546875 -26.265625 C 3.890625 -26.722656 4.367188 -26.953125 4.984375 -26.953125 C 5.597656 -26.953125 6.097656 -26.75 6.484375 -26.34375 C 6.878906 -25.9375 7.078125 -25.425781 7.078125 -24.8125 C 7.078125 -24.132812 6.910156 -23.53125 6.578125 -23 C 6.253906 -22.46875 5.734375 -22.125 5.015625 -21.96875 L 0.15625 -20.859375 C 0.0507812 -20.804688 0 -20.835938 0 -20.953125 Z M 5.015625 -25.796875 C 4.753906 -25.796875 4.535156 -25.679688 4.359375 -25.453125 C 4.179688 -25.222656 4.113281 -24.925781 4.15625 -24.5625 C 4.207031 -24.207031 4.335938 -23.9375 4.546875 -23.75 C 4.753906 -23.5625 4.96875 -23.46875 5.1875 -23.46875 C 5.46875 -23.601562 5.644531 -23.789062 5.71875 -24.03125 C 5.800781 -24.269531 5.84375 -24.519531 5.84375 -24.78125 C 5.84375 -25.09375 5.765625 -25.335938 5.609375 -25.515625 C 5.453125 -25.703125 5.253906 -25.796875 5.015625 -25.796875 Z M 5.015625 -25.796875 "/></g></g></g><g fill="#ffffff" fill-opacity="1"><g transform="translate(386.781709, 28.061058)"><g><path d="M 1.578125 0 C 1.359375 0 1.269531 -0.0976562 1.3125 -0.296875 C 1.445312 -0.972656 1.757812 -1.554688 2.25 -2.046875 C 2.738281 -2.535156 3.34375 -2.78125 4.0625 -2.78125 L 13.25 -2.78125 C 13.394531 -3.832031 13.179688 -4.894531 12.609375 -5.96875 C 12.046875 -7.039062 11.234375 -7.988281 10.171875 -8.8125 C 9.117188 -9.644531 7.914062 -10.226562 6.5625 -10.5625 C 5.8125 -10.726562 5.265625 -11.160156 4.921875 -11.859375 C 4.585938 -12.566406 4.421875 -13.222656 4.421875 -13.828125 C 4.421875 -14.003906 4.519531 -14.09375 4.71875 -14.09375 C 6.90625 -13.914062 8.738281 -13.382812 10.21875 -12.5 C 11.707031 -11.625 12.894531 -10.554688 13.78125 -9.296875 C 14.664062 -8.035156 15.273438 -6.757812 15.609375 -5.46875 C 15.847656 -4.550781 16.285156 -3.875 16.921875 -3.4375 C 17.554688 -3 18.242188 -2.78125 18.984375 -2.78125 L 20.625 -2.78125 L 20.625 0 L 18.984375 0 C 18.367188 0 17.773438 -0.148438 17.203125 -0.453125 C 16.640625 -0.765625 16.140625 -1.238281 15.703125 -1.875 C 15.660156 -1.914062 15.640625 -1.914062 15.640625 -1.875 C 15.421875 -1.320312 15.109375 -0.867188 14.703125 -0.515625 C 14.296875 -0.171875 13.773438 0 13.140625 0 Z M 1.578125 0 "/></g></g></g><g fill="#ffffff" fill-opacity="1"><g transform="translate(407.075897, 28.061058)"><g><path d="M -0.328125 0 L -0.328125 -2.78125 L 4.625 -2.78125 C 4.007812 -3.175781 3.472656 -3.757812 3.015625 -4.53125 C 2.554688 -5.3125 2.328125 -6.148438 2.328125 -7.046875 C 2.328125 -8.296875 2.601562 -9.453125 3.15625 -10.515625 C 3.71875 -11.585938 4.53125 -12.453125 5.59375 -13.109375 C 6.65625 -13.765625 7.925781 -14.09375 9.40625 -14.09375 C 10.632812 -14.09375 11.753906 -13.789062 12.765625 -13.1875 C 13.785156 -12.59375 14.59375 -11.722656 15.1875 -10.578125 C 15.789062 -9.429688 16.09375 -8.046875 16.09375 -6.421875 L 16.09375 -2.78125 L 19.796875 -2.78125 L 19.796875 0 Z M 9.3125 -11.640625 C 8.375 -11.640625 7.617188 -11.410156 7.046875 -10.953125 C 6.484375 -10.492188 6.070312 -9.910156 5.8125 -9.203125 C 5.5625 -8.503906 5.4375 -7.785156 5.4375 -7.046875 C 5.4375 -5.773438 5.773438 -4.742188 6.453125 -3.953125 C 7.128906 -3.171875 8.039062 -2.78125 9.1875 -2.78125 L 13.015625 -2.78125 L 13.015625 -6.75 C 13.015625 -7.664062 12.847656 -8.488281 12.515625 -9.21875 C 12.191406 -9.957031 11.75 -10.546875 11.1875 -10.984375 C 10.632812 -11.421875 10.007812 -11.640625 9.3125 -11.640625 Z M 10.0625 -17.734375 C 10.0625 -18.109375 10.195312 -18.4375 10.46875 -18.71875 C 10.75 -19 11.082031 -19.140625 11.46875 -19.140625 C 11.84375 -19.140625 12.164062 -19 12.4375 -18.71875 C 12.71875 -18.4375 12.859375 -18.109375 12.859375 -17.734375 C 12.859375 -17.367188 12.71875 -17.046875 12.4375 -16.765625 C 12.164062 -16.492188 11.84375 -16.359375 11.46875 -16.359375 C 11.082031 -16.359375 10.75 -16.492188 10.46875 -16.765625 C 10.195312 -17.046875 10.0625 -17.367188 10.0625 -17.734375 Z M 7.640625 -16.359375 C 7.265625 -16.359375 6.941406 -16.492188 6.671875 -16.765625 C 6.398438 -17.046875 6.265625 -17.367188 6.265625 -17.734375 C 6.265625 -18.109375 6.398438 -18.4375 6.671875 -18.71875 C 6.941406 -19 7.265625 -19.140625 7.640625 -19.140625 C 8.035156 -19.140625 8.367188 -19 8.640625 -18.71875 C 8.910156 -18.4375 9.046875 -18.109375 9.046875 -17.734375 C 9.046875 -17.367188 8.910156 -17.046875 8.640625 -16.765625 C 8.367188 -16.492188 8.035156 -16.359375 7.640625 -16.359375 Z M 7.640625 -16.359375 "/></g></g></g><g fill="#ffffff" fill-opacity="1"><g transform="translate(427.76352, 27.536491)"><g><path d="M 0.03125 -20.890625 C -0.0078125 -21.054688 0.0078125 -21.316406 0.09375 -21.671875 C 0.1875 -22.023438 0.414062 -22.242188 0.78125 -22.328125 L 6.625 -23.640625 C 6.726562 -23.679688 6.78125 -23.648438 6.78125 -23.546875 C 6.832031 -23.390625 6.816406 -23.128906 6.734375 -22.765625 C 6.660156 -22.410156 6.4375 -22.1875 6.0625 -22.09375 L 0.15625 -20.78125 C 0.0703125 -20.78125 0.03125 -20.816406 0.03125 -20.890625 Z M 0.03125 -20.890625 "/></g></g></g><g fill="#ffffff" fill-opacity="1"><g transform="translate(426.550461, 28.061058)"><g><path d="M -0.328125 -2.78125 L 4.203125 -2.78125 L 4.203125 -12 C 4.203125 -12.519531 4.378906 -12.929688 4.734375 -13.234375 C 5.097656 -13.546875 5.5 -13.765625 5.9375 -13.890625 C 6.375 -14.023438 6.710938 -14.09375 6.953125 -14.09375 C 7.148438 -14.09375 7.25 -14.019531 7.25 -13.875 L 7.25 -2.890625 C 7.25 -2.097656 6.96875 -1.414062 6.40625 -0.84375 C 5.851562 -0.28125 5.171875 0 4.359375 0 L -0.328125 0 Z M 3.796875 -17.734375 C 3.796875 -18.109375 3.929688 -18.4375 4.203125 -18.71875 C 4.484375 -19 4.820312 -19.140625 5.21875 -19.140625 C 5.582031 -19.140625 5.898438 -19 6.171875 -18.71875 C 6.453125 -18.4375 6.59375 -18.109375 6.59375 -17.734375 C 6.59375 -17.367188 6.453125 -17.046875 6.171875 -16.765625 C 5.898438 -16.492188 5.582031 -16.359375 5.21875 -16.359375 C 4.820312 -16.359375 4.484375 -16.492188 4.203125 -16.765625 C 3.929688 -17.046875 3.796875 -17.367188 3.796875 -17.734375 Z M 1.375 -16.359375 C 0.976562 -16.359375 0.644531 -16.492188 0.375 -16.765625 C 0.101562 -17.046875 -0.03125 -17.367188 -0.03125 -17.734375 C -0.03125 -18.109375 0.101562 -18.4375 0.375 -18.71875 C 0.644531 -19 0.976562 -19.140625 1.375 -19.140625 C 1.75 -19.140625 2.070312 -19 2.34375 -18.71875 C 2.613281 -18.4375 2.75 -18.109375 2.75 -17.734375 C 2.75 -17.367188 2.613281 -17.046875 2.34375 -16.765625 C 2.070312 -16.492188 1.75 -16.359375 1.375 -16.359375 Z M 1.375 -16.359375 "/></g></g></g><g fill="#ffffff" fill-opacity="1"><g transform="translate(435.770931, 28.061058)"><g/></g></g></g></g></svg>