<svg xmlns="http://www.w3.org/2000/svg" xmlns:xlink="http://www.w3.org/1999/xlink" width="1080" zoomAndPan="magnify" viewBox="0 0 810 809.999993" height="1080" preserveAspectRatio="xMidYMid meet" version="1.0"><defs><g/><clipPath id="87ffb10071"><rect x="0" width="778" y="0" height="70"/></clipPath></defs><g transform="matrix(1, 0, 0, 1, 16, 370)"><g clip-path="url(#87ffb10071)"><g fill="#ffffff" fill-opacity="1"><g transform="translate(7.235085, 47.941073)"><g><path d="M -4.03125 10.1875 C -4.40625 9.988281 -4.582031 9.695312 -4.5625 9.3125 C -4.550781 8.925781 -4.101562 8.8125 -3.21875 8.96875 C -2.71875 9.050781 -2.207031 9.109375 -1.6875 9.140625 C -1.175781 9.179688 -0.671875 9.203125 -0.171875 9.203125 C 1.515625 9.203125 3.144531 8.90625 4.71875 8.3125 C 6.289062 7.71875 7.582031 6.691406 8.59375 5.234375 C 9.613281 3.773438 10.101562 1.722656 10.0625 -0.921875 L 9.953125 -20.296875 C 9.953125 -21.410156 10.265625 -22.285156 10.890625 -22.921875 C 11.523438 -23.554688 12.222656 -24.003906 12.984375 -24.265625 C 13.753906 -24.535156 14.351562 -24.671875 14.78125 -24.671875 C 15.164062 -24.671875 15.359375 -24.519531 15.359375 -24.21875 L 15.40625 0.859375 C 15.40625 2.972656 15.050781 4.773438 14.34375 6.265625 C 13.632812 7.765625 12.703125 8.960938 11.546875 9.859375 C 10.398438 10.765625 9.164062 11.425781 7.84375 11.84375 C 6.519531 12.269531 5.226562 12.484375 3.96875 12.484375 C 2.4375 12.484375 0.972656 12.222656 -0.421875 11.703125 C -1.828125 11.179688 -3.03125 10.675781 -4.03125 10.1875 Z M -4.03125 10.1875 "/></g></g></g><g fill="#ffffff" fill-opacity="1"><g transform="translate(26.100319, 47.941073)"><g><path d="M 2.875 -12.3125 C 2.875 -14.5 3.390625 -16.53125 4.421875 -18.40625 C 5.460938 -20.28125 6.929688 -21.800781 8.828125 -22.96875 C 10.722656 -24.144531 12.976562 -24.734375 15.59375 -24.734375 C 17.851562 -24.734375 19.890625 -24.164062 21.703125 -23.03125 C 23.523438 -21.90625 24.972656 -20.296875 26.046875 -18.203125 C 27.117188 -16.109375 27.65625 -13.644531 27.65625 -10.8125 L 27.65625 -4.890625 L 31.453125 -4.890625 L 31.453125 0 L 27.65625 0 L 27.65625 0.8125 C 27.65625 2.914062 27.28125 4.710938 26.53125 6.203125 C 25.789062 7.703125 24.816406 8.898438 23.609375 9.796875 C 22.398438 10.703125 21.101562 11.363281 19.71875 11.78125 C 18.34375 12.207031 17.023438 12.421875 15.765625 12.421875 C 14.222656 12.421875 12.753906 12.171875 11.359375 11.671875 C 9.960938 11.171875 8.765625 10.675781 7.765625 10.1875 C 7.378906 9.988281 7.195312 9.6875 7.21875 9.28125 C 7.238281 8.882812 7.6875 8.765625 8.5625 8.921875 C 9.101562 8.992188 9.640625 9.054688 10.171875 9.109375 C 10.710938 9.171875 11.269531 9.203125 11.84375 9.203125 C 13.53125 9.203125 15.171875 8.929688 16.765625 8.390625 C 18.359375 7.859375 19.679688 6.929688 20.734375 5.609375 C 21.785156 4.285156 22.3125 2.414062 22.3125 0 L 15.59375 0 C 13.289062 0 11.332031 -0.398438 9.71875 -1.203125 C 8.101562 -2.015625 6.796875 -3.039062 5.796875 -4.28125 C 4.804688 -5.53125 4.070312 -6.863281 3.59375 -8.28125 C 3.113281 -9.695312 2.875 -11.039062 2.875 -12.3125 Z M 15.53125 -20.421875 C 13.882812 -20.421875 12.519531 -20.015625 11.4375 -19.203125 C 10.363281 -18.398438 9.578125 -17.375 9.078125 -16.125 C 8.585938 -14.882812 8.34375 -13.613281 8.34375 -12.3125 C 8.34375 -10.8125 8.6875 -9.503906 9.375 -8.390625 C 10.0625 -7.285156 10.988281 -6.425781 12.15625 -5.8125 C 13.332031 -5.195312 14.59375 -4.890625 15.9375 -4.890625 L 22.3125 -4.890625 L 22.3125 -11.4375 C 22.3125 -13.050781 22.03125 -14.535156 21.46875 -15.890625 C 20.914062 -17.253906 20.140625 -18.347656 19.140625 -19.171875 C 18.148438 -20.003906 16.945312 -20.421875 15.53125 -20.421875 Z M 15.53125 -20.421875 "/></g></g></g><g fill="#ffffff" fill-opacity="1"><g transform="translate(56.9864, 47.941073)"><g><path d="M 35.890625 0 L -0.578125 0 L -0.578125 -4.890625 L 7.53125 -4.890625 L 7.53125 -36.515625 C 7.53125 -37.472656 7.847656 -38.21875 8.484375 -38.75 C 9.117188 -39.289062 9.828125 -39.675781 10.609375 -39.90625 C 11.398438 -40.144531 12.003906 -40.265625 12.421875 -40.265625 C 12.734375 -40.265625 12.890625 -40.109375 12.890625 -39.796875 L 12.890625 -15.984375 C 12.890625 -15.953125 12.925781 -15.9375 13 -15.9375 C 14.726562 -18.425781 17 -20.515625 19.8125 -22.203125 C 22.632812 -23.890625 25.960938 -24.734375 29.796875 -24.734375 C 31.742188 -24.734375 33.617188 -24.257812 35.421875 -23.3125 C 37.222656 -22.375 38.707031 -21.070312 39.875 -19.40625 C 41.050781 -17.738281 41.640625 -15.796875 41.640625 -13.578125 L 41.640625 -11.046875 C 41.640625 -8.785156 42.117188 -7.191406 43.078125 -6.265625 C 44.035156 -5.347656 45.265625 -4.890625 46.765625 -4.890625 L 48.484375 -4.890625 L 48.484375 0 L 46.765625 0 C 45.679688 0 44.628906 -0.265625 43.609375 -0.796875 C 42.597656 -1.335938 41.710938 -2.164062 40.953125 -3.28125 C 40.953125 -3.351562 40.910156 -3.351562 40.828125 -3.28125 C 40.453125 -2.320312 39.8125 -1.535156 38.90625 -0.921875 C 38.007812 -0.304688 37.003906 0 35.890625 0 Z M 11.84375 -4.890625 L 36.171875 -4.890625 L 36.171875 -12.53125 C 36.171875 -14.1875 35.832031 -15.519531 35.15625 -16.53125 C 34.488281 -17.550781 33.628906 -18.300781 32.578125 -18.78125 C 31.523438 -19.257812 30.40625 -19.5 29.21875 -19.5 C 26.757812 -19.5 24.484375 -19.066406 22.390625 -18.203125 C 20.304688 -17.335938 18.488281 -16.195312 16.9375 -14.78125 C 15.382812 -13.363281 14.164062 -11.789062 13.28125 -10.0625 C 12.40625 -8.34375 11.925781 -6.617188 11.84375 -4.890625 Z M 11.84375 -4.890625 "/></g></g></g><g fill="#ffffff" fill-opacity="1"><g transform="translate(104.897206, 47.941073)"><g><path d="M 7.828125 0 L -0.578125 0 L -0.578125 -4.890625 L 7.828125 -4.890625 L 7.828125 -17.765625 C 7.828125 -18.722656 8.140625 -19.46875 8.765625 -20 C 9.398438 -20.539062 10.109375 -20.925781 10.890625 -21.15625 C 11.679688 -21.394531 12.269531 -21.515625 12.65625 -21.515625 C 13 -21.515625 13.171875 -21.359375 13.171875 -21.046875 L 13.171875 -11.09375 C 13.171875 -8.800781 13.664062 -7.191406 14.65625 -6.265625 C 15.65625 -5.347656 16.925781 -4.890625 18.46875 -4.890625 L 21.28125 -4.890625 L 21.28125 0 L 18.46875 0 C 17.382812 0 16.351562 -0.21875 15.375 -0.65625 C 14.40625 -1.101562 13.59375 -1.863281 12.9375 -2.9375 C 12.78125 -3.195312 12.644531 -3.195312 12.53125 -2.9375 C 12.1875 -2.050781 11.5625 -1.335938 10.65625 -0.796875 C 9.757812 -0.265625 8.816406 0 7.828125 0 Z M 13.625 -25.53125 C 12.9375 -25.53125 12.351562 -25.769531 11.875 -26.25 C 11.394531 -26.726562 11.15625 -27.296875 11.15625 -27.953125 C 11.15625 -28.597656 11.394531 -29.171875 11.875 -29.671875 C 12.351562 -30.171875 12.9375 -30.421875 13.625 -30.421875 C 14.28125 -30.421875 14.847656 -30.171875 15.328125 -29.671875 C 15.804688 -29.171875 16.046875 -28.597656 16.046875 -27.953125 C 16.046875 -27.296875 15.804688 -26.726562 15.328125 -26.25 C 14.847656 -25.769531 14.28125 -25.53125 13.625 -25.53125 Z M 4.421875 -27.953125 C 4.421875 -28.597656 4.660156 -29.171875 5.140625 -29.671875 C 5.617188 -30.171875 6.207031 -30.421875 6.90625 -30.421875 C 7.550781 -30.421875 8.113281 -30.171875 8.59375 -29.671875 C 9.070312 -29.171875 9.3125 -28.597656 9.3125 -27.953125 C 9.3125 -27.296875 9.070312 -26.726562 8.59375 -26.25 C 8.113281 -25.769531 7.550781 -25.53125 6.90625 -25.53125 C 6.207031 -25.53125 5.617188 -25.769531 5.140625 -26.25 C 4.660156 -26.726562 4.421875 -27.296875 4.421875 -27.953125 Z M 4.421875 -27.953125 "/></g></g></g><g fill="#ffffff" fill-opacity="1"><g transform="translate(125.60295, 47.941073)"><g><path d="M 6.734375 0 L -0.578125 0 L -0.578125 -4.890625 L 6.390625 -4.890625 L 6.390625 -36.515625 C 6.390625 -37.441406 6.703125 -38.179688 7.328125 -38.734375 C 7.960938 -39.285156 8.660156 -39.675781 9.421875 -39.90625 C 10.191406 -40.144531 10.789062 -40.265625 11.21875 -40.265625 C 11.5625 -40.265625 11.734375 -40.109375 11.734375 -39.796875 L 11.734375 -5.0625 C 11.734375 -3.644531 11.242188 -2.445312 10.265625 -1.46875 C 9.285156 -0.488281 8.109375 0 6.734375 0 Z M 6.734375 0 "/></g></g></g><g fill="#ffffff" fill-opacity="1"><g transform="translate(141.362315, 47.941073)"><g><path d="M 4.03125 -0.453125 L 4.03125 -36.515625 C 4.03125 -37.472656 4.34375 -38.21875 4.96875 -38.75 C 5.601562 -39.289062 6.3125 -39.675781 7.09375 -39.90625 C 7.882812 -40.144531 8.472656 -40.265625 8.859375 -40.265625 C 9.203125 -40.265625 9.375 -40.109375 9.375 -39.796875 L 9.375 -3.734375 C 9.375 -2.816406 9.066406 -2.085938 8.453125 -1.546875 C 7.835938 -1.015625 7.144531 -0.625 6.375 -0.375 C 5.613281 -0.125 5.019531 0 4.59375 0 C 4.21875 0 4.03125 -0.148438 4.03125 -0.453125 Z M 4.03125 -0.453125 "/></g></g></g><g fill="#ffffff" fill-opacity="1"><g transform="translate(154.763545, 47.941073)"><g><path d="M 15.59375 0 C 13.289062 0 11.332031 -0.398438 9.71875 -1.203125 C 8.101562 -2.015625 6.796875 -3.039062 5.796875 -4.28125 C 4.804688 -5.53125 4.070312 -6.863281 3.59375 -8.28125 C 3.113281 -9.695312 2.875 -11.039062 2.875 -12.3125 C 2.875 -14.5 3.390625 -16.53125 4.421875 -18.40625 C 5.460938 -20.28125 6.929688 -21.800781 8.828125 -22.96875 C 10.722656 -24.144531 12.976562 -24.734375 15.59375 -24.734375 C 17.851562 -24.734375 19.890625 -24.164062 21.703125 -23.03125 C 23.523438 -21.90625 24.972656 -20.296875 26.046875 -18.203125 C 27.117188 -16.109375 27.65625 -13.644531 27.65625 -10.8125 L 27.65625 0.8125 C 27.65625 2.914062 27.28125 4.710938 26.53125 6.203125 C 25.789062 7.703125 24.816406 8.898438 23.609375 9.796875 C 22.398438 10.703125 21.101562 11.363281 19.71875 11.78125 C 18.34375 12.207031 17.023438 12.421875 15.765625 12.421875 C 14.222656 12.421875 12.753906 12.171875 11.359375 11.671875 C 9.960938 11.171875 8.765625 10.675781 7.765625 10.1875 C 7.378906 9.988281 7.195312 9.6875 7.21875 9.28125 C 7.238281 8.882812 7.6875 8.765625 8.5625 8.921875 C 9.101562 8.992188 9.640625 9.054688 10.171875 9.109375 C 10.710938 9.171875 11.269531 9.203125 11.84375 9.203125 C 13.53125 9.203125 15.171875 8.929688 16.765625 8.390625 C 18.359375 7.859375 19.679688 6.929688 20.734375 5.609375 C 21.785156 4.285156 22.3125 2.414062 22.3125 0 Z M 15.53125 -20.421875 C 13.882812 -20.421875 12.519531 -20.015625 11.4375 -19.203125 C 10.363281 -18.398438 9.578125 -17.375 9.078125 -16.125 C 8.585938 -14.882812 8.34375 -13.613281 8.34375 -12.3125 C 8.34375 -10.8125 8.6875 -9.503906 9.375 -8.390625 C 10.0625 -7.285156 10.988281 -6.425781 12.15625 -5.8125 C 13.332031 -5.195312 14.59375 -4.890625 15.9375 -4.890625 L 22.3125 -4.890625 L 22.3125 -11.4375 C 22.3125 -13.050781 22.03125 -14.535156 21.46875 -15.890625 C 20.914062 -17.253906 20.140625 -18.347656 19.140625 -19.171875 C 18.148438 -20.003906 16.945312 -20.421875 15.53125 -20.421875 Z M 15.53125 -20.421875 "/></g></g></g><g fill="#ffffff" fill-opacity="1"><g transform="translate(185.879674, 47.941073)"><g/></g><g transform="translate(198.820777, 47.941073)"><g><path d="M 2.296875 7.875 C 2.296875 6.269531 2.617188 4.695312 3.265625 3.15625 C 3.921875 1.625 4.96875 0.238281 6.40625 -1 C 7.84375 -2.25 9.734375 -3.21875 12.078125 -3.90625 C 12.148438 -3.90625 12.148438 -3.945312 12.078125 -4.03125 C 10.546875 -4.945312 9.25 -6.179688 8.1875 -7.734375 C 7.132812 -9.285156 6.609375 -11.289062 6.609375 -13.75 C 6.609375 -15.695312 6.953125 -17.367188 7.640625 -18.765625 C 8.335938 -20.171875 9.238281 -21.304688 10.34375 -22.171875 C 11.457031 -23.035156 12.6875 -23.675781 14.03125 -24.09375 C 15.375 -24.519531 16.675781 -24.734375 17.9375 -24.734375 C 19.394531 -24.734375 20.867188 -24.53125 22.359375 -24.125 C 23.859375 -23.71875 25.222656 -23.101562 26.453125 -22.28125 C 27.679688 -21.457031 28.601562 -20.414062 29.21875 -19.15625 C 29.375 -18.882812 29.296875 -18.671875 28.984375 -18.515625 C 28.066406 -18.054688 27.128906 -17.828125 26.171875 -17.828125 C 25.242188 -17.828125 24.378906 -18.054688 23.578125 -18.515625 C 23.003906 -18.859375 22.34375 -19.210938 21.59375 -19.578125 C 20.84375 -19.941406 19.894531 -20.125 18.75 -20.125 C 16.757812 -20.125 15.160156 -19.507812 13.953125 -18.28125 C 12.742188 -17.0625 12.140625 -15.394531 12.140625 -13.28125 C 12.140625 -11.5625 12.5625 -10.144531 13.40625 -9.03125 C 14.25 -7.914062 15.335938 -7.0625 16.671875 -6.46875 C 18.015625 -5.875 19.441406 -5.460938 20.953125 -5.234375 C 22.472656 -5.003906 23.882812 -4.890625 25.1875 -4.890625 L 31.859375 -4.890625 C 32.171875 -4.890625 32.328125 -4.753906 32.328125 -4.484375 C 32.359375 -3.835938 32.179688 -3.164062 31.796875 -2.46875 C 31.421875 -1.78125 30.914062 -1.195312 30.28125 -0.71875 C 29.644531 -0.238281 28.945312 0 28.1875 0 L 19.15625 0 C 16.28125 0 14.015625 0.351562 12.359375 1.0625 C 10.710938 1.769531 9.546875 2.695312 8.859375 3.84375 C 8.171875 5 7.828125 6.285156 7.828125 7.703125 C 7.828125 10.046875 8.84375 11.945312 10.875 13.40625 C 12.90625 14.863281 15.722656 15.59375 19.328125 15.59375 C 21.816406 15.59375 24.054688 15.273438 26.046875 14.640625 C 28.046875 14.003906 29.660156 13.285156 30.890625 12.484375 C 31.234375 12.253906 31.546875 12.242188 31.828125 12.453125 C 32.117188 12.660156 32.09375 12.976562 31.75 13.40625 L 27.71875 17.59375 C 27.1875 18.175781 26.332031 18.644531 25.15625 19 C 23.988281 19.363281 22.820312 19.632812 21.65625 19.8125 C 20.488281 19.988281 19.597656 20.078125 18.984375 20.078125 C 13.460938 20.078125 9.300781 18.941406 6.5 16.671875 C 3.695312 14.410156 2.296875 11.476562 2.296875 7.875 Z M 2.296875 7.875 "/></g></g></g><g fill="#ffffff" fill-opacity="1"><g transform="translate(233.445374, 47.941073)"><g><path d="M 4.03125 -0.453125 L 4.03125 -36.515625 C 4.03125 -37.472656 4.34375 -38.21875 4.96875 -38.75 C 5.601562 -39.289062 6.3125 -39.675781 7.09375 -39.90625 C 7.882812 -40.144531 8.472656 -40.265625 8.859375 -40.265625 C 9.203125 -40.265625 9.375 -40.109375 9.375 -39.796875 L 9.375 -3.734375 C 9.375 -2.816406 9.066406 -2.085938 8.453125 -1.546875 C 7.835938 -1.015625 7.144531 -0.625 6.375 -0.375 C 5.613281 -0.125 5.019531 0 4.59375 0 C 4.21875 0 4.03125 -0.148438 4.03125 -0.453125 Z M 4.03125 -0.453125 "/></g></g></g><g fill="#ffffff" fill-opacity="1"><g transform="translate(246.846605, 47.941073)"><g><path d="M 2.765625 0 C 2.378906 0 2.222656 -0.171875 2.296875 -0.515625 C 2.523438 -1.703125 3.070312 -2.726562 3.9375 -3.59375 C 4.800781 -4.457031 5.863281 -4.890625 7.125 -4.890625 L 23.234375 -4.890625 C 23.503906 -6.734375 23.140625 -8.59375 22.140625 -10.46875 C 21.140625 -12.34375 19.707031 -14.007812 17.84375 -15.46875 C 15.988281 -16.925781 13.875 -17.941406 11.5 -18.515625 C 10.195312 -18.828125 9.25 -19.59375 8.65625 -20.8125 C 8.0625 -22.039062 7.765625 -23.191406 7.765625 -24.265625 C 7.765625 -24.578125 7.9375 -24.734375 8.28125 -24.734375 C 12.113281 -24.421875 15.332031 -23.488281 17.9375 -21.9375 C 20.550781 -20.382812 22.632812 -18.503906 24.1875 -16.296875 C 25.738281 -14.097656 26.800781 -11.867188 27.375 -9.609375 C 27.800781 -7.992188 28.566406 -6.800781 29.671875 -6.03125 C 30.785156 -5.269531 31.992188 -4.890625 33.296875 -4.890625 L 36.171875 -4.890625 L 36.171875 0 L 33.296875 0 C 32.222656 0 31.1875 -0.265625 30.1875 -0.796875 C 29.195312 -1.335938 28.316406 -2.164062 27.546875 -3.28125 C 27.472656 -3.351562 27.4375 -3.351562 27.4375 -3.28125 C 27.050781 -2.320312 26.503906 -1.535156 25.796875 -0.921875 C 25.085938 -0.304688 24.175781 0 23.0625 0 Z M 2.765625 0 "/></g></g></g><g fill="#ffffff" fill-opacity="1"><g transform="translate(282.448987, 47.941073)"><g><path d="M -0.578125 -4.890625 L 7.359375 -4.890625 L 7.359375 -21.046875 C 7.359375 -21.972656 7.675781 -22.703125 8.3125 -23.234375 C 8.945312 -23.773438 9.644531 -24.160156 10.40625 -24.390625 C 11.175781 -24.617188 11.769531 -24.734375 12.1875 -24.734375 C 12.53125 -24.734375 12.703125 -24.597656 12.703125 -24.328125 L 12.703125 -5.0625 C 12.703125 -3.675781 12.210938 -2.484375 11.234375 -1.484375 C 10.265625 -0.492188 9.070312 0 7.65625 0 L -0.578125 0 Z M 7.59375 10.296875 C 6.9375 10.296875 6.367188 10.054688 5.890625 9.578125 C 5.410156 9.097656 5.171875 8.515625 5.171875 7.828125 C 5.171875 7.171875 5.410156 6.601562 5.890625 6.125 C 6.367188 5.644531 6.9375 5.40625 7.59375 5.40625 C 8.28125 5.40625 8.863281 5.644531 9.34375 6.125 C 9.820312 6.601562 10.0625 7.171875 10.0625 7.828125 C 10.0625 8.515625 9.820312 9.097656 9.34375 9.578125 C 8.863281 10.054688 8.28125 10.296875 7.59375 10.296875 Z M 7.59375 10.296875 "/></g></g></g><g fill="#ffffff" fill-opacity="1"><g transform="translate(298.610983, 47.941073)"><g><path d="M 2.296875 -0.515625 C 2.296875 -0.941406 2.410156 -1.421875 2.640625 -1.953125 C 2.867188 -2.492188 3.257812 -2.960938 3.8125 -3.359375 C 4.375 -3.765625 5.113281 -3.96875 6.03125 -3.96875 L 16.390625 -3.96875 C 17.535156 -3.96875 18.566406 -4.320312 19.484375 -5.03125 C 20.410156 -5.738281 21.148438 -6.640625 21.703125 -7.734375 C 22.265625 -8.828125 22.546875 -9.929688 22.546875 -11.046875 L 22.546875 -36.515625 C 22.546875 -37.472656 22.859375 -38.21875 23.484375 -38.75 C 24.117188 -39.289062 24.820312 -39.675781 25.59375 -39.90625 C 26.363281 -40.144531 26.957031 -40.265625 27.375 -40.265625 C 27.71875 -40.265625 27.890625 -40.085938 27.890625 -39.734375 L 27.890625 -10.8125 C 27.890625 -8.820312 27.363281 -7.007812 26.3125 -5.375 C 25.257812 -3.75 23.878906 -2.445312 22.171875 -1.46875 C 20.460938 -0.488281 18.613281 0 16.625 0 L 2.8125 0 C 2.46875 0 2.296875 -0.171875 2.296875 -0.515625 Z M 6.265625 -6.671875 C 5.921875 -6.671875 5.75 -6.820312 5.75 -7.125 L 5.75 -32.78125 C 5.75 -33.738281 6.066406 -34.484375 6.703125 -35.015625 C 7.335938 -35.554688 8.035156 -35.941406 8.796875 -36.171875 C 9.566406 -36.398438 10.160156 -36.515625 10.578125 -36.515625 C 10.921875 -36.515625 11.09375 -36.363281 11.09375 -36.0625 L 11.09375 -10.40625 C 11.09375 -9.488281 10.773438 -8.757812 10.140625 -8.21875 C 9.515625 -7.6875 8.816406 -7.296875 8.046875 -7.046875 C 7.285156 -6.796875 6.691406 -6.671875 6.265625 -6.671875 Z M 3.046875 11.4375 C 3.003906 10.832031 3.222656 10.335938 3.703125 9.953125 C 4.179688 9.566406 4.726562 9.375 5.34375 9.375 L 6.609375 9.375 C 6.648438 9.375 6.679688 9.351562 6.703125 9.3125 C 6.722656 9.28125 6.710938 9.265625 6.671875 9.265625 C 6.285156 8.953125 5.976562 8.578125 5.75 8.140625 C 5.519531 7.703125 5.40625 7.175781 5.40625 6.5625 C 5.40625 5.601562 5.644531 4.875 6.125 4.375 C 6.601562 3.875 7.164062 3.515625 7.8125 3.296875 C 8.46875 3.085938 9.046875 2.984375 9.546875 2.984375 C 10.316406 2.984375 11.023438 3.164062 11.671875 3.53125 C 12.328125 3.894531 12.847656 4.460938 13.234375 5.234375 C 13.304688 5.390625 13.285156 5.503906 13.171875 5.578125 C 12.859375 5.734375 12.453125 5.835938 11.953125 5.890625 C 11.460938 5.953125 11.082031 5.90625 10.8125 5.75 C 10.695312 5.675781 10.503906 5.582031 10.234375 5.46875 C 9.960938 5.351562 9.675781 5.296875 9.375 5.296875 C 8.988281 5.296875 8.625 5.410156 8.28125 5.640625 C 7.9375 5.867188 7.765625 6.234375 7.765625 6.734375 C 7.765625 7.609375 8.144531 8.265625 8.90625 8.703125 C 9.675781 9.148438 10.484375 9.375 11.328125 9.375 L 13.109375 9.375 C 13.265625 9.375 13.34375 9.453125 13.34375 9.609375 C 13.34375 10.179688 13.113281 10.664062 12.65625 11.0625 C 12.195312 11.46875 11.660156 11.671875 11.046875 11.671875 L 3.28125 11.671875 C 3.125 11.671875 3.046875 11.59375 3.046875 11.4375 Z M 3.046875 11.4375 "/></g></g></g><g fill="#ffffff" fill-opacity="1"><g transform="translate(330.532344, 47.941073)"><g><path d="M 4.03125 -0.453125 L 4.03125 -36.515625 C 4.03125 -37.472656 4.34375 -38.21875 4.96875 -38.75 C 5.601562 -39.289062 6.3125 -39.675781 7.09375 -39.90625 C 7.882812 -40.144531 8.472656 -40.265625 8.859375 -40.265625 C 9.203125 -40.265625 9.375 -40.109375 9.375 -39.796875 L 9.375 -3.734375 C 9.375 -2.816406 9.066406 -2.085938 8.453125 -1.546875 C 7.835938 -1.015625 7.144531 -0.625 6.375 -0.375 C 5.613281 -0.125 5.019531 0 4.59375 0 C 4.21875 0 4.03125 -0.148438 4.03125 -0.453125 Z M 4.03125 -0.453125 "/></g></g></g><g fill="#ffffff" fill-opacity="1"><g transform="translate(343.933574, 47.941073)"><g/></g></g><g fill="#ffffff" fill-opacity="1"><g transform="translate(356.874677, 47.941073)"><g><path d="M 2.875 -10.640625 C 2.875 -10.867188 2.988281 -10.984375 3.21875 -10.984375 C 3.675781 -10.984375 4.203125 -10.816406 4.796875 -10.484375 C 5.390625 -10.160156 5.90625 -9.710938 6.34375 -9.140625 C 6.789062 -8.566406 7.015625 -7.878906 7.015625 -7.078125 L 7.015625 -2.8125 C 7.015625 0.59375 8.269531 3.164062 10.78125 4.90625 C 13.289062 6.65625 16.632812 7.53125 20.8125 7.53125 C 23.113281 7.53125 25.019531 7.28125 26.53125 6.78125 C 28.050781 6.28125 29.25 5.664062 30.125 4.9375 C 31.007812 4.21875 31.644531 3.472656 32.03125 2.703125 C 32.414062 1.929688 32.609375 1.28125 32.609375 0.75 C 32.609375 0.175781 32.453125 -0.359375 32.140625 -0.859375 C 31.835938 -1.359375 31.304688 -1.835938 30.546875 -2.296875 C 29.234375 -3.066406 28.328125 -4.070312 27.828125 -5.3125 C 27.335938 -6.5625 27.398438 -7.9375 28.015625 -9.4375 C 28.160156 -9.78125 28.367188 -9.875 28.640625 -9.71875 C 29.410156 -9.332031 30.335938 -8.753906 31.421875 -7.984375 C 32.515625 -7.222656 33.722656 -6.515625 35.046875 -5.859375 C 36.367188 -5.210938 37.742188 -4.890625 39.171875 -4.890625 L 40.546875 -4.890625 L 40.546875 0 L 39.5625 0 C 39.53125 0 39.414062 0 39.21875 0 C 39.03125 0 38.78125 -0.0195312 38.46875 -0.0625 C 38.28125 -0.09375 38.164062 -0.078125 38.125 -0.015625 C 38.09375 0.0351562 38.078125 0.15625 38.078125 0.34375 C 38.078125 2.800781 37.300781 4.9375 35.75 6.75 C 34.195312 8.570312 32.113281 9.972656 29.5 10.953125 C 26.894531 11.929688 24 12.421875 20.8125 12.421875 C 17.332031 12.421875 14.238281 11.941406 11.53125 10.984375 C 8.832031 10.023438 6.710938 8.507812 5.171875 6.4375 C 3.640625 4.363281 2.875 1.660156 2.875 -1.671875 Z M 2.875 -10.640625 "/></g></g></g><g fill="#ffffff" fill-opacity="1"><g transform="translate(396.848255, 47.941073)"><g><path d="M -0.578125 0 L -0.578125 -4.890625 L 8.109375 -4.890625 C 7.035156 -5.578125 6.09375 -6.597656 5.28125 -7.953125 C 4.476562 -9.316406 4.078125 -10.785156 4.078125 -12.359375 C 4.078125 -14.546875 4.566406 -16.578125 5.546875 -18.453125 C 6.523438 -20.335938 7.941406 -21.851562 9.796875 -23 C 11.660156 -24.15625 13.894531 -24.734375 16.5 -24.734375 C 18.65625 -24.734375 20.625 -24.203125 22.40625 -23.140625 C 24.1875 -22.085938 25.601562 -20.554688 26.65625 -18.546875 C 27.707031 -16.535156 28.234375 -14.109375 28.234375 -11.265625 L 28.234375 -4.890625 L 34.734375 -4.890625 L 34.734375 0 Z M 16.328125 -20.421875 C 14.679688 -20.421875 13.359375 -20.015625 12.359375 -19.203125 C 11.367188 -18.398438 10.648438 -17.382812 10.203125 -16.15625 C 9.765625 -14.9375 9.546875 -13.671875 9.546875 -12.359375 C 9.546875 -10.140625 10.140625 -8.335938 11.328125 -6.953125 C 12.515625 -5.578125 14.109375 -4.890625 16.109375 -4.890625 L 22.828125 -4.890625 L 22.828125 -11.84375 C 22.828125 -13.457031 22.539062 -14.90625 21.96875 -16.1875 C 21.394531 -17.46875 20.617188 -18.492188 19.640625 -19.265625 C 18.660156 -20.035156 17.554688 -20.421875 16.328125 -20.421875 Z M 17.65625 -31.109375 C 17.65625 -31.765625 17.894531 -32.34375 18.375 -32.84375 C 18.851562 -33.34375 19.4375 -33.59375 20.125 -33.59375 C 20.78125 -33.59375 21.347656 -33.34375 21.828125 -32.84375 C 22.304688 -32.34375 22.546875 -31.765625 22.546875 -31.109375 C 22.546875 -30.460938 22.304688 -29.898438 21.828125 -29.421875 C 21.347656 -28.941406 20.78125 -28.703125 20.125 -28.703125 C 19.4375 -28.703125 18.851562 -28.941406 18.375 -29.421875 C 17.894531 -29.898438 17.65625 -30.460938 17.65625 -31.109375 Z M 13.40625 -28.703125 C 12.75 -28.703125 12.179688 -28.941406 11.703125 -29.421875 C 11.222656 -29.898438 10.984375 -30.460938 10.984375 -31.109375 C 10.984375 -31.765625 11.222656 -32.34375 11.703125 -32.84375 C 12.179688 -33.34375 12.75 -33.59375 13.40625 -33.59375 C 14.09375 -33.59375 14.675781 -33.34375 15.15625 -32.84375 C 15.632812 -32.34375 15.875 -31.765625 15.875 -31.109375 C 15.875 -30.460938 15.632812 -29.898438 15.15625 -29.421875 C 14.675781 -28.941406 14.09375 -28.703125 13.40625 -28.703125 Z M 13.40625 -28.703125 "/></g></g></g><g fill="#ffffff" fill-opacity="1"><g transform="translate(431.012726, 47.941073)"><g><path d="M 7.828125 0 L -0.578125 0 L -0.578125 -4.890625 L 7.828125 -4.890625 L 7.828125 -17.765625 C 7.828125 -18.722656 8.140625 -19.46875 8.765625 -20 C 9.398438 -20.539062 10.109375 -20.925781 10.890625 -21.15625 C 11.679688 -21.394531 12.269531 -21.515625 12.65625 -21.515625 C 13 -21.515625 13.171875 -21.359375 13.171875 -21.046875 L 13.171875 -11.09375 C 13.171875 -8.800781 13.664062 -7.191406 14.65625 -6.265625 C 15.65625 -5.347656 16.925781 -4.890625 18.46875 -4.890625 L 21.28125 -4.890625 L 21.28125 0 L 18.46875 0 C 17.382812 0 16.351562 -0.21875 15.375 -0.65625 C 14.40625 -1.101562 13.59375 -1.863281 12.9375 -2.9375 C 12.78125 -3.195312 12.644531 -3.195312 12.53125 -2.9375 C 12.1875 -2.050781 11.5625 -1.335938 10.65625 -0.796875 C 9.757812 -0.265625 8.816406 0 7.828125 0 Z M 13.625 -25.53125 C 12.9375 -25.53125 12.351562 -25.769531 11.875 -26.25 C 11.394531 -26.726562 11.15625 -27.296875 11.15625 -27.953125 C 11.15625 -28.597656 11.394531 -29.171875 11.875 -29.671875 C 12.351562 -30.171875 12.9375 -30.421875 13.625 -30.421875 C 14.28125 -30.421875 14.847656 -30.171875 15.328125 -29.671875 C 15.804688 -29.171875 16.046875 -28.597656 16.046875 -27.953125 C 16.046875 -27.296875 15.804688 -26.726562 15.328125 -26.25 C 14.847656 -25.769531 14.28125 -25.53125 13.625 -25.53125 Z M 4.421875 -27.953125 C 4.421875 -28.597656 4.660156 -29.171875 5.140625 -29.671875 C 5.617188 -30.171875 6.207031 -30.421875 6.90625 -30.421875 C 7.550781 -30.421875 8.113281 -30.171875 8.59375 -29.671875 C 9.070312 -29.171875 9.3125 -28.597656 9.3125 -27.953125 C 9.3125 -27.296875 9.070312 -26.726562 8.59375 -26.25 C 8.113281 -25.769531 7.550781 -25.53125 6.90625 -25.53125 C 6.207031 -25.53125 5.617188 -25.769531 5.140625 -26.25 C 4.660156 -26.726562 4.421875 -27.296875 4.421875 -27.953125 Z M 4.421875 -27.953125 "/></g></g></g><g fill="#ffffff" fill-opacity="1"><g transform="translate(451.718471, 47.941073)"><g><path d="M 7.65625 0 L -0.578125 0 L -0.578125 -4.890625 L 7.65625 -4.890625 L 7.65625 -36.515625 C 7.65625 -37.472656 7.96875 -38.21875 8.59375 -38.75 C 9.226562 -39.289062 9.925781 -39.675781 10.6875 -39.90625 C 11.457031 -40.144531 12.054688 -40.265625 12.484375 -40.265625 C 12.828125 -40.265625 13 -40.085938 13 -39.734375 L 13 -11.046875 C 13 -8.785156 13.492188 -7.191406 14.484375 -6.265625 C 15.484375 -5.347656 16.734375 -4.890625 18.234375 -4.890625 L 19.375 -4.890625 L 19.375 0 L 18.234375 0 C 17.160156 0 16.144531 -0.226562 15.1875 -0.6875 C 14.226562 -1.144531 13.421875 -2.007812 12.765625 -3.28125 C 12.691406 -3.4375 12.65625 -3.4375 12.65625 -3.28125 C 12.457031 -2.320312 11.847656 -1.535156 10.828125 -0.921875 C 9.816406 -0.304688 8.757812 0 7.65625 0 Z M 7.65625 0 "/></g></g></g><g fill="#ffffff" fill-opacity="1"><g transform="translate(483.984935, 55.188092)"><g><path d="M 0 -36.75 C -0.0390625 -37.050781 0.00390625 -37.488281 0.140625 -38.0625 C 0.273438 -38.644531 0.671875 -39.015625 1.328125 -39.171875 L 7.1875 -40.609375 C 5.957031 -41.109375 5.34375 -42.007812 5.34375 -43.3125 C 5.34375 -44.34375 5.640625 -45.257812 6.234375 -46.0625 C 6.828125 -46.875 7.660156 -47.28125 8.734375 -47.28125 C 9.816406 -47.28125 10.703125 -46.921875 11.390625 -46.203125 C 12.078125 -45.492188 12.421875 -44.601562 12.421875 -43.53125 C 12.421875 -42.34375 12.132812 -41.28125 11.5625 -40.34375 C 10.988281 -39.40625 10.066406 -38.800781 8.796875 -38.53125 L 0.28125 -36.578125 C 0.09375 -36.503906 0 -36.5625 0 -36.75 Z M 8.796875 -45.265625 C 8.335938 -45.265625 7.953125 -45.0625 7.640625 -44.65625 C 7.335938 -44.257812 7.222656 -43.734375 7.296875 -43.078125 C 7.378906 -42.460938 7.601562 -41.988281 7.96875 -41.65625 C 8.332031 -41.332031 8.707031 -41.171875 9.09375 -41.171875 C 9.582031 -41.410156 9.894531 -41.738281 10.03125 -42.15625 C 10.164062 -42.582031 10.234375 -43.023438 10.234375 -43.484375 C 10.234375 -44.015625 10.097656 -44.441406 9.828125 -44.765625 C 9.566406 -45.097656 9.222656 -45.265625 8.796875 -45.265625 Z M 8.796875 -45.265625 "/></g></g></g><g fill="#ffffff" fill-opacity="1"><g transform="translate(470.526176, 47.941073)"><g><path d="M -0.578125 0 L -0.578125 -4.890625 L 1.671875 -4.890625 C 2.515625 -4.890625 3.347656 -5.140625 4.171875 -5.640625 C 4.992188 -6.140625 5.691406 -6.941406 6.265625 -8.046875 C 6.835938 -9.160156 7.125 -10.597656 7.125 -12.359375 C 7.125 -14.628906 7.632812 -16.703125 8.65625 -18.578125 C 9.675781 -20.453125 11.078125 -21.945312 12.859375 -23.0625 C 14.640625 -24.175781 16.679688 -24.734375 18.984375 -24.734375 C 21.316406 -24.734375 23.375 -24.175781 25.15625 -23.0625 C 26.945312 -21.945312 28.347656 -20.453125 29.359375 -18.578125 C 30.378906 -16.703125 30.890625 -14.628906 30.890625 -12.359375 C 30.890625 -8.753906 29.921875 -5.789062 27.984375 -3.46875 C 26.046875 -1.15625 23.195312 0 19.4375 0 C 17.132812 0 15.285156 -0.515625 13.890625 -1.546875 C 12.492188 -2.585938 11.351562 -3.894531 10.46875 -5.46875 C 10.46875 -5.46875 10.429688 -5.46875 10.359375 -5.46875 C 9.628906 -3.582031 8.378906 -2.195312 6.609375 -1.3125 C 4.847656 -0.4375 2.953125 0 0.921875 0 Z M 12.59375 -12.359375 C 12.59375 -10.179688 13.140625 -8.304688 14.234375 -6.734375 C 15.328125 -5.160156 16.910156 -4.375 18.984375 -4.375 C 21.242188 -4.375 22.878906 -5.160156 23.890625 -6.734375 C 24.910156 -8.304688 25.421875 -10.179688 25.421875 -12.359375 C 25.421875 -13.816406 25.132812 -15.160156 24.5625 -16.390625 C 23.988281 -17.617188 23.21875 -18.597656 22.25 -19.328125 C 21.289062 -20.054688 20.203125 -20.421875 18.984375 -20.421875 C 17.753906 -20.421875 16.660156 -20.054688 15.703125 -19.328125 C 14.742188 -18.597656 13.984375 -17.617188 13.421875 -16.390625 C 12.867188 -15.160156 12.59375 -13.816406 12.59375 -12.359375 Z M 12.59375 -12.359375 "/></g></g></g><g fill="#ffffff" fill-opacity="1"><g transform="translate(504.288048, 47.941073)"><g/></g></g><g fill="#ffffff" fill-opacity="1"><g transform="translate(517.22915, 47.941073)"><g><path d="M 2.875 -18.46875 C 2.875 -18.8125 3.046875 -18.984375 3.390625 -18.984375 C 3.773438 -19.015625 4.242188 -18.914062 4.796875 -18.6875 C 5.359375 -18.457031 5.859375 -18.09375 6.296875 -17.59375 C 6.734375 -17.09375 6.953125 -16.441406 6.953125 -15.640625 L 6.953125 -13.796875 C 6.953125 -11.503906 7.269531 -9.742188 7.90625 -8.515625 C 8.539062 -7.285156 9.347656 -6.410156 10.328125 -5.890625 C 11.304688 -5.378906 12.335938 -5.082031 13.421875 -5 C 14.515625 -4.925781 15.539062 -4.890625 16.5 -4.890625 L 40.65625 -4.890625 L 40.65625 -17.828125 C 40.65625 -18.742188 40.972656 -19.46875 41.609375 -20 C 42.242188 -20.539062 42.941406 -20.925781 43.703125 -21.15625 C 44.472656 -21.394531 45.070312 -21.515625 45.5 -21.515625 C 45.84375 -21.515625 46.015625 -21.34375 46.015625 -21 L 46.015625 -10.8125 C 46.015625 -8.664062 46.519531 -7.140625 47.53125 -6.234375 C 48.550781 -5.335938 49.804688 -4.890625 51.296875 -4.890625 L 54.171875 -4.890625 L 54.171875 0 L 51.296875 0 C 49.148438 0 47.332031 -1.109375 45.84375 -3.328125 C 45.757812 -3.410156 45.71875 -3.394531 45.71875 -3.28125 C 45.332031 -2.320312 44.671875 -1.535156 43.734375 -0.921875 C 42.796875 -0.304688 41.789062 0 40.71875 0 L 15.765625 0 C 14.921875 0 13.929688 -0.0703125 12.796875 -0.21875 C 11.660156 -0.375 10.519531 -0.703125 9.375 -1.203125 C 8.226562 -1.703125 7.164062 -2.421875 6.1875 -3.359375 C 5.207031 -4.304688 4.410156 -5.554688 3.796875 -7.109375 C 3.179688 -8.660156 2.875 -10.601562 2.875 -12.9375 Z M 18.515625 -27.375 C 18.515625 -28.03125 18.753906 -28.601562 19.234375 -29.09375 C 19.710938 -29.59375 20.28125 -29.84375 20.9375 -29.84375 C 21.625 -29.84375 22.207031 -29.59375 22.6875 -29.09375 C 23.164062 -28.601562 23.40625 -28.03125 23.40625 -27.375 C 23.40625 -26.726562 23.164062 -26.160156 22.6875 -25.671875 C 22.207031 -25.191406 21.625 -24.953125 20.9375 -24.953125 C 20.28125 -24.953125 19.710938 -25.191406 19.234375 -25.671875 C 18.753906 -26.160156 18.515625 -26.726562 18.515625 -27.375 Z M 24.5 -30.65625 C 23.84375 -30.65625 23.273438 -30.894531 22.796875 -31.375 C 22.316406 -31.851562 22.078125 -32.4375 22.078125 -33.125 C 22.078125 -33.78125 22.316406 -34.347656 22.796875 -34.828125 C 23.273438 -35.304688 23.84375 -35.546875 24.5 -35.546875 C 25.15625 -35.546875 25.726562 -35.304688 26.21875 -34.828125 C 26.71875 -34.347656 26.96875 -33.78125 26.96875 -33.125 C 26.96875 -32.4375 26.71875 -31.851562 26.21875 -31.375 C 25.726562 -30.894531 25.15625 -30.65625 24.5 -30.65625 Z M 25.25 -27.375 C 25.25 -28.03125 25.488281 -28.601562 25.96875 -29.09375 C 26.445312 -29.59375 27.03125 -29.84375 27.71875 -29.84375 C 28.375 -29.84375 28.941406 -29.59375 29.421875 -29.09375 C 29.898438 -28.601562 30.140625 -28.03125 30.140625 -27.375 C 30.140625 -26.726562 29.898438 -26.160156 29.421875 -25.671875 C 28.941406 -25.191406 28.375 -24.953125 27.71875 -24.953125 C 27.03125 -24.953125 26.445312 -25.191406 25.96875 -25.671875 C 25.488281 -26.160156 25.25 -26.726562 25.25 -27.375 Z M 25.25 -27.375 "/></g></g></g><g fill="#ffffff" fill-opacity="1"><g transform="translate(570.834039, 47.941073)"><g><path d="M -0.578125 0 L -0.578125 -4.890625 L 7.828125 -4.890625 L 7.828125 -17.765625 C 7.828125 -18.722656 8.140625 -19.46875 8.765625 -20 C 9.398438 -20.539062 10.109375 -20.925781 10.890625 -21.15625 C 11.679688 -21.394531 12.269531 -21.515625 12.65625 -21.515625 C 13 -21.515625 13.171875 -21.359375 13.171875 -21.046875 L 13.171875 -11.09375 C 13.171875 -8.800781 13.664062 -7.191406 14.65625 -6.265625 C 15.65625 -5.347656 16.925781 -4.890625 18.46875 -4.890625 L 21.28125 -4.890625 L 21.28125 0 L 18.46875 0 C 17.382812 0 16.351562 -0.21875 15.375 -0.65625 C 14.40625 -1.101562 13.59375 -1.863281 12.9375 -2.9375 C 12.78125 -3.195312 12.644531 -3.195312 12.53125 -2.9375 C 12.1875 -2.050781 11.5625 -1.335938 10.65625 -0.796875 C 9.757812 -0.265625 8.816406 0 7.828125 0 Z M 13.625 10.296875 C 12.976562 10.296875 12.414062 10.054688 11.9375 9.578125 C 11.457031 9.097656 11.21875 8.515625 11.21875 7.828125 C 11.21875 7.171875 11.457031 6.601562 11.9375 6.125 C 12.414062 5.644531 12.976562 5.40625 13.625 5.40625 C 14.320312 5.40625 14.910156 5.644531 15.390625 6.125 C 15.867188 6.601562 16.109375 7.171875 16.109375 7.828125 C 16.109375 8.515625 15.867188 9.097656 15.390625 9.578125 C 14.910156 10.054688 14.320312 10.296875 13.625 10.296875 Z M 4.484375 7.828125 C 4.484375 7.171875 4.722656 6.601562 5.203125 6.125 C 5.679688 5.644531 6.25 5.40625 6.90625 5.40625 C 7.59375 5.40625 8.175781 5.644531 8.65625 6.125 C 9.132812 6.601562 9.375 7.171875 9.375 7.828125 C 9.375 8.515625 9.132812 9.097656 8.65625 9.578125 C 8.175781 10.054688 7.59375 10.296875 6.90625 10.296875 C 6.25 10.296875 5.679688 10.054688 5.203125 9.578125 C 4.722656 9.097656 4.484375 8.515625 4.484375 7.828125 Z M 4.484375 7.828125 "/></g></g></g><g fill="#ffffff" fill-opacity="1"><g transform="translate(591.539751, 47.941073)"><g><path d="M -0.578125 0 L -0.578125 -4.890625 L 29.84375 -4.890625 C 29.726562 -6.578125 29.421875 -8.289062 28.921875 -10.03125 C 28.429688 -11.78125 27.644531 -13.421875 26.5625 -14.953125 C 25.488281 -16.484375 24.0625 -17.75 22.28125 -18.75 C 20.5 -19.75 18.25 -20.304688 15.53125 -20.421875 C 13.644531 -20.492188 12.1875 -20.507812 11.15625 -20.46875 C 10.125 -20.4375 9.070312 -20.421875 8 -20.421875 C 6.5 -20.421875 5.316406 -20.628906 4.453125 -21.046875 C 3.585938 -21.472656 2.972656 -21.972656 2.609375 -22.546875 C 2.253906 -23.117188 2.015625 -23.597656 1.890625 -23.984375 C 1.816406 -24.328125 1.894531 -24.5 2.125 -24.5 C 4.5 -24.570312 6.597656 -24.632812 8.421875 -24.6875 C 10.242188 -24.75 12.328125 -24.765625 14.671875 -24.734375 C 18.078125 -24.691406 20.957031 -24.257812 23.3125 -23.4375 C 25.675781 -22.613281 27.625 -21.53125 29.15625 -20.1875 C 30.6875 -18.84375 31.882812 -17.335938 32.75 -15.671875 C 33.613281 -14.003906 34.238281 -12.285156 34.625 -10.515625 C 35.007812 -8.753906 35.257812 -7.070312 35.375 -5.46875 C 35.488281 -3.695312 35.046875 -2.34375 34.046875 -1.40625 C 33.046875 -0.46875 31.816406 0 30.359375 0 Z M -0.578125 0 "/></g></g></g><g fill="#ffffff" fill-opacity="1"><g transform="translate(629.787907, 47.941073)"><g/></g><g transform="translate(642.72901, 47.941073)"><g><path d="M 2.296875 17.421875 L 2.296875 3.15625 C 2.296875 0.550781 3.082031 -1.4375 4.65625 -2.8125 C 6.226562 -4.195312 8.128906 -4.890625 10.359375 -4.890625 L 12.078125 -4.890625 C 12.347656 -4.890625 12.382812 -4.984375 12.1875 -5.171875 C 11.226562 -6.128906 10.476562 -7.238281 9.9375 -8.5 C 9.40625 -9.769531 9.140625 -11.113281 9.140625 -12.53125 C 9.140625 -14.800781 9.644531 -16.851562 10.65625 -18.6875 C 11.675781 -20.53125 13.085938 -22 14.890625 -23.09375 C 16.691406 -24.1875 18.742188 -24.734375 21.046875 -24.734375 C 23.390625 -24.734375 25.453125 -24.1875 27.234375 -23.09375 C 29.015625 -22 30.421875 -20.53125 31.453125 -18.6875 C 32.492188 -16.851562 33.015625 -14.800781 33.015625 -12.53125 C 33.015625 -9.882812 32.492188 -7.628906 31.453125 -5.765625 C 30.421875 -3.910156 29.015625 -2.484375 27.234375 -1.484375 C 25.453125 -0.492188 23.390625 0 21.046875 0 L 9.265625 0 C 8.492188 0 7.820312 0.285156 7.25 0.859375 C 6.675781 1.429688 6.390625 2.101562 6.390625 2.875 L 6.390625 14.203125 C 6.390625 15.128906 6.175781 15.867188 5.75 16.421875 C 5.332031 16.972656 4.84375 17.363281 4.28125 17.59375 C 3.726562 17.820312 3.238281 17.9375 2.8125 17.9375 C 2.46875 17.9375 2.296875 17.765625 2.296875 17.421875 Z M 14.609375 -12.53125 C 14.609375 -10.351562 15.15625 -8.523438 16.25 -7.046875 C 17.34375 -5.566406 18.941406 -4.828125 21.046875 -4.828125 C 23.273438 -4.828125 24.914062 -5.582031 25.96875 -7.09375 C 27.019531 -8.613281 27.546875 -10.46875 27.546875 -12.65625 C 27.546875 -14.113281 27.257812 -15.425781 26.6875 -16.59375 C 26.113281 -17.757812 25.335938 -18.6875 24.359375 -19.375 C 23.378906 -20.070312 22.273438 -20.421875 21.046875 -20.421875 C 19.816406 -20.421875 18.710938 -20.066406 17.734375 -19.359375 C 16.765625 -18.648438 16 -17.695312 15.4375 -16.5 C 14.882812 -15.3125 14.609375 -13.988281 14.609375 -12.53125 Z M 14.609375 -12.53125 "/></g></g></g><g fill="#ffffff" fill-opacity="1"><g transform="translate(684.025507, 52.944949)"><g><path d="M 0 -36.75 C -0.0390625 -37.050781 0.00390625 -37.488281 0.140625 -38.0625 C 0.273438 -38.644531 0.671875 -39.015625 1.328125 -39.171875 L 7.1875 -40.609375 C 5.957031 -41.109375 5.34375 -42.007812 5.34375 -43.3125 C 5.34375 -44.34375 5.640625 -45.257812 6.234375 -46.0625 C 6.828125 -46.875 7.660156 -47.28125 8.734375 -47.28125 C 9.816406 -47.28125 10.703125 -46.921875 11.390625 -46.203125 C 12.078125 -45.492188 12.421875 -44.601562 12.421875 -43.53125 C 12.421875 -42.34375 12.132812 -41.28125 11.5625 -40.34375 C 10.988281 -39.40625 10.066406 -38.800781 8.796875 -38.53125 L 0.28125 -36.578125 C 0.09375 -36.503906 0 -36.5625 0 -36.75 Z M 8.796875 -45.265625 C 8.335938 -45.265625 7.953125 -45.0625 7.640625 -44.65625 C 7.335938 -44.257812 7.222656 -43.734375 7.296875 -43.078125 C 7.378906 -42.460938 7.601562 -41.988281 7.96875 -41.65625 C 8.332031 -41.332031 8.707031 -41.171875 9.09375 -41.171875 C 9.582031 -41.410156 9.894531 -41.738281 10.03125 -42.15625 C 10.164062 -42.582031 10.234375 -43.023438 10.234375 -43.484375 C 10.234375 -44.015625 10.097656 -44.441406 9.828125 -44.765625 C 9.566406 -45.097656 9.222656 -45.265625 8.796875 -45.265625 Z M 8.796875 -45.265625 "/></g></g></g><g fill="#ffffff" fill-opacity="1"><g transform="translate(678.043815, 47.941073)"><g><path d="M 2.765625 0 C 2.378906 0 2.222656 -0.171875 2.296875 -0.515625 C 2.523438 -1.703125 3.070312 -2.726562 3.9375 -3.59375 C 4.800781 -4.457031 5.863281 -4.890625 7.125 -4.890625 L 23.234375 -4.890625 C 23.503906 -6.734375 23.140625 -8.59375 22.140625 -10.46875 C 21.140625 -12.34375 19.707031 -14.007812 17.84375 -15.46875 C 15.988281 -16.925781 13.875 -17.941406 11.5 -18.515625 C 10.195312 -18.828125 9.25 -19.59375 8.65625 -20.8125 C 8.0625 -22.039062 7.765625 -23.191406 7.765625 -24.265625 C 7.765625 -24.578125 7.9375 -24.734375 8.28125 -24.734375 C 12.113281 -24.421875 15.332031 -23.488281 17.9375 -21.9375 C 20.550781 -20.382812 22.632812 -18.503906 24.1875 -16.296875 C 25.738281 -14.097656 26.800781 -11.867188 27.375 -9.609375 C 27.800781 -7.992188 28.566406 -6.800781 29.671875 -6.03125 C 30.785156 -5.269531 31.992188 -4.890625 33.296875 -4.890625 L 36.171875 -4.890625 L 36.171875 0 L 33.296875 0 C 32.222656 0 31.1875 -0.265625 30.1875 -0.796875 C 29.195312 -1.335938 28.316406 -2.164062 27.546875 -3.28125 C 27.472656 -3.351562 27.4375 -3.351562 27.4375 -3.28125 C 27.050781 -2.320312 26.503906 -1.535156 25.796875 -0.921875 C 25.085938 -0.304688 24.175781 0 23.0625 0 Z M 2.765625 0 "/></g></g></g><g fill="#ffffff" fill-opacity="1"><g transform="translate(713.646197, 47.941073)"><g><path d="M -0.578125 0 L -0.578125 -4.890625 L 8.109375 -4.890625 C 7.035156 -5.578125 6.09375 -6.597656 5.28125 -7.953125 C 4.476562 -9.316406 4.078125 -10.785156 4.078125 -12.359375 C 4.078125 -14.546875 4.566406 -16.578125 5.546875 -18.453125 C 6.523438 -20.335938 7.941406 -21.851562 9.796875 -23 C 11.660156 -24.15625 13.894531 -24.734375 16.5 -24.734375 C 18.65625 -24.734375 20.625 -24.203125 22.40625 -23.140625 C 24.1875 -22.085938 25.601562 -20.554688 26.65625 -18.546875 C 27.707031 -16.535156 28.234375 -14.109375 28.234375 -11.265625 L 28.234375 -4.890625 L 34.734375 -4.890625 L 34.734375 0 Z M 16.328125 -20.421875 C 14.679688 -20.421875 13.359375 -20.015625 12.359375 -19.203125 C 11.367188 -18.398438 10.648438 -17.382812 10.203125 -16.15625 C 9.765625 -14.9375 9.546875 -13.671875 9.546875 -12.359375 C 9.546875 -10.140625 10.140625 -8.335938 11.328125 -6.953125 C 12.515625 -5.578125 14.109375 -4.890625 16.109375 -4.890625 L 22.828125 -4.890625 L 22.828125 -11.84375 C 22.828125 -13.457031 22.539062 -14.90625 21.96875 -16.1875 C 21.394531 -17.46875 20.617188 -18.492188 19.640625 -19.265625 C 18.660156 -20.035156 17.554688 -20.421875 16.328125 -20.421875 Z M 17.65625 -31.109375 C 17.65625 -31.765625 17.894531 -32.34375 18.375 -32.84375 C 18.851562 -33.34375 19.4375 -33.59375 20.125 -33.59375 C 20.78125 -33.59375 21.347656 -33.34375 21.828125 -32.84375 C 22.304688 -32.34375 22.546875 -31.765625 22.546875 -31.109375 C 22.546875 -30.460938 22.304688 -29.898438 21.828125 -29.421875 C 21.347656 -28.941406 20.78125 -28.703125 20.125 -28.703125 C 19.4375 -28.703125 18.851562 -28.941406 18.375 -29.421875 C 17.894531 -29.898438 17.65625 -30.460938 17.65625 -31.109375 Z M 13.40625 -28.703125 C 12.75 -28.703125 12.179688 -28.941406 11.703125 -29.421875 C 11.222656 -29.898438 10.984375 -30.460938 10.984375 -31.109375 C 10.984375 -31.765625 11.222656 -32.34375 11.703125 -32.84375 C 12.179688 -33.34375 12.75 -33.59375 13.40625 -33.59375 C 14.09375 -33.59375 14.675781 -33.34375 15.15625 -32.84375 C 15.632812 -32.34375 15.875 -31.765625 15.875 -31.109375 C 15.875 -30.460938 15.632812 -29.898438 15.15625 -29.421875 C 14.675781 -28.941406 14.09375 -28.703125 13.40625 -28.703125 Z M 13.40625 -28.703125 "/></g></g></g><g fill="#ffffff" fill-opacity="1"><g transform="translate(749.938786, 47.020818)"><g><path d="M 0.0625 -36.640625 C -0.0195312 -36.941406 0.015625 -37.398438 0.171875 -38.015625 C 0.328125 -38.628906 0.726562 -39.015625 1.375 -39.171875 L 11.625 -41.46875 C 11.8125 -41.539062 11.90625 -41.484375 11.90625 -41.296875 C 11.976562 -41.023438 11.945312 -40.570312 11.8125 -39.9375 C 11.6875 -39.3125 11.296875 -38.921875 10.640625 -38.765625 L 0.28125 -36.46875 C 0.132812 -36.46875 0.0625 -36.523438 0.0625 -36.640625 Z M 0.0625 -36.640625 "/></g></g></g><g fill="#ffffff" fill-opacity="1"><g transform="translate(747.8107, 47.941073)"><g><path d="M -0.578125 -4.890625 L 7.359375 -4.890625 L 7.359375 -21.046875 C 7.359375 -21.972656 7.675781 -22.703125 8.3125 -23.234375 C 8.945312 -23.773438 9.644531 -24.160156 10.40625 -24.390625 C 11.175781 -24.617188 11.769531 -24.734375 12.1875 -24.734375 C 12.53125 -24.734375 12.703125 -24.597656 12.703125 -24.328125 L 12.703125 -5.0625 C 12.703125 -3.675781 12.210938 -2.484375 11.234375 -1.484375 C 10.265625 -0.492188 9.070312 0 7.65625 0 L -0.578125 0 Z M 6.671875 -31.109375 C 6.671875 -31.765625 6.910156 -32.34375 7.390625 -32.84375 C 7.867188 -33.34375 8.453125 -33.59375 9.140625 -33.59375 C 9.796875 -33.59375 10.363281 -33.34375 10.84375 -32.84375 C 11.320312 -32.34375 11.5625 -31.765625 11.5625 -31.109375 C 11.5625 -30.460938 11.320312 -29.898438 10.84375 -29.421875 C 10.363281 -28.941406 9.796875 -28.703125 9.140625 -28.703125 C 8.453125 -28.703125 7.867188 -28.941406 7.390625 -29.421875 C 6.910156 -29.898438 6.671875 -30.460938 6.671875 -31.109375 Z M 2.421875 -28.703125 C 1.722656 -28.703125 1.132812 -28.941406 0.65625 -29.421875 C 0.175781 -29.898438 -0.0625 -30.460938 -0.0625 -31.109375 C -0.0625 -31.765625 0.175781 -32.34375 0.65625 -32.84375 C 1.132812 -33.34375 1.722656 -33.59375 2.421875 -33.59375 C 3.066406 -33.59375 3.628906 -33.34375 4.109375 -32.84375 C 4.585938 -32.34375 4.828125 -31.765625 4.828125 -31.109375 C 4.828125 -30.460938 4.585938 -29.898438 4.109375 -29.421875 C 3.628906 -28.941406 3.066406 -28.703125 2.421875 -28.703125 Z M 2.421875 -28.703125 "/></g></g></g><g fill="#ffffff" fill-opacity="1"><g transform="translate(763.986302, 47.941073)"><g/></g></g></g></g></svg>